<svg width="25" height="25" viewBox="0 0 25 25" fill="none" xmlns="http://www.w3.org/2000/svg">
<path d="M12.4409 22.58C12.1409 22.58 11.8409 22.51 11.5909 22.37C9.72092 21.35 6.43092 20.27 4.37092 20L4.08092 19.96C2.77092 19.8 1.69092 18.57 1.69092 17.24V5.16001C1.69092 4.37001 2.00092 3.65001 2.57092 3.13001C3.14092 2.61001 3.88092 2.36001 4.66092 2.43001C6.86092 2.60001 10.1809 3.70001 12.0609 4.88001L12.3009 5.02001C12.3709 5.06001 12.5209 5.06001 12.5809 5.03001L12.7409 4.93001C14.6209 3.75001 17.9409 2.63001 20.1509 2.44001C20.1709 2.44001 20.2509 2.44001 20.2709 2.44001C21.0009 2.37001 21.7509 2.63001 22.3109 3.15001C22.8809 3.67001 23.1909 4.39001 23.1909 5.18001V17.25C23.1909 18.59 22.1109 19.81 20.7909 19.97L20.4609 20.01C18.4009 20.28 15.1009 21.37 13.2709 22.38C13.0309 22.52 12.7409 22.58 12.4409 22.58ZM4.42092 3.92001C4.10092 3.92001 3.81092 4.03001 3.58092 4.24001C3.33092 4.47001 3.19092 4.80001 3.19092 5.16001V17.24C3.19092 17.83 3.70092 18.4 4.27092 18.48L4.57092 18.52C6.82092 18.82 10.2709 19.95 12.2709 21.04C12.3609 21.08 12.4909 21.09 12.5409 21.07C14.5409 19.96 18.0109 18.82 20.2709 18.52L20.6109 18.48C21.1809 18.41 21.6909 17.83 21.6909 17.24V5.17001C21.6909 4.80001 21.5509 4.48001 21.3009 4.24001C21.0409 4.01001 20.7109 3.90001 20.3409 3.92001C20.3209 3.92001 20.2409 3.92001 20.2209 3.92001C18.3109 4.09001 15.2309 5.12001 13.5509 6.17001L13.3909 6.28001C12.8409 6.62001 12.0609 6.62001 11.5309 6.29001L11.2909 6.15001C9.58092 5.10001 6.50092 4.08001 4.54092 3.92001C4.50092 3.92001 4.46092 3.92001 4.42092 3.92001Z" fill="#3F3C3D"/>
<path d="M12.4409 21.74C12.0309 21.74 11.6909 21.4 11.6909 20.99V5.98999C11.6909 5.57999 12.0309 5.23999 12.4409 5.23999C12.8509 5.23999 13.1909 5.57999 13.1909 5.98999V20.99C13.1909 21.41 12.8509 21.74 12.4409 21.74Z" fill="#3F3C3D"/>
<path d="M8.19092 9.73999H5.94092C5.53092 9.73999 5.19092 9.39999 5.19092 8.98999C5.19092 8.57999 5.53092 8.23999 5.94092 8.23999H8.19092C8.60092 8.23999 8.94092 8.57999 8.94092 8.98999C8.94092 9.39999 8.60092 9.73999 8.19092 9.73999Z" fill="#3F3C3D"/>
<path d="M8.94092 12.74H5.94092C5.53092 12.74 5.19092 12.4 5.19092 11.99C5.19092 11.58 5.53092 11.24 5.94092 11.24H8.94092C9.35092 11.24 9.69092 11.58 9.69092 11.99C9.69092 12.4 9.35092 12.74 8.94092 12.74Z" fill="#3F3C3D"/>
</svg>
