<svg width="22" height="25" viewBox="0 0 22 25" fill="none" xmlns="http://www.w3.org/2000/svg">
<path d="M18.7523 24.4928C18.1528 24.4928 17.5261 24.3157 16.8858 23.9751L11.5313 20.9913C11.2725 20.855 10.7138 20.855 10.4549 20.9913L5.11413 23.9751C3.95605 24.6154 2.77069 24.6699 1.87148 24.1385C0.95864 23.6072 0.440918 22.5445 0.440918 21.2365V5.75905C0.440918 2.85703 2.79797 0.5 5.69997 0.5H16.2999C19.2019 0.5 21.559 2.85703 21.559 5.75905V21.2365C21.559 22.5445 21.0412 23.6072 20.1284 24.1385C19.7197 24.3702 19.2564 24.4928 18.7523 24.4928ZM1.77425 2.5C2.31923 2.5 19.6788 2.2848 20.1284 2.53004V22.1766C20.6189 22.4491 18.8341 22.5309 19.0929 22.3674C19.3518 22.2175 19.5153 21.7815 19.5153 21.2229V5.74542C19.5153 3.97423 18.0711 2.53004 16.2999 2.53004H5.69997C3.92879 2.53004 2.4846 3.97423 2.4846 5.74542L3.77425 21.1667C3.77425 21.7253 3.02479 22.0267 3.28366 22.1766C3.54252 22.3265 3.62908 22.4491 4.11956 22.1766L2.4846 23.1667C2.92058 22.9351 1.22927 2.5 1.77425 2.5Z" fill="#3F3C3D"/>
</svg>
