<svg width="16" height="16" viewBox="0 0 16 16" fill="none" xmlns="http://www.w3.org/2000/svg">
<path d="M10.3334 7.5H5.66669C5.39335 7.5 5.16669 7.27333 5.16669 7C5.16669 6.72667 5.39335 6.5 5.66669 6.5H10.3334C10.6067 6.5 10.8334 6.72667 10.8334 7C10.8334 7.27333 10.6067 7.5 10.3334 7.5Z" fill="#191516"/>
<path d="M10.6666 14.88C10.44 14.88 10.2133 14.8133 10.02 14.6867L7.17997 12.7933H4.66665C2.37331 12.7933 0.833313 11.2533 0.833313 8.95998V4.95998C0.833313 2.66665 2.37331 1.12665 4.66665 1.12665H11.3333C13.6266 1.12665 15.1666 2.66665 15.1666 4.95998V8.95998C15.1666 11.08 13.8466 12.56 11.8333 12.7667V13.7133C11.8333 14.1467 11.6 14.54 11.22 14.74C11.0466 14.8333 10.8533 14.88 10.6666 14.88ZM4.66665 2.11997C2.94665 2.11997 1.83331 3.23331 1.83331 4.95331V8.95331C1.83331 10.6733 2.94665 11.7866 4.66665 11.7866H7.33331C7.43331 11.7866 7.52666 11.8133 7.61332 11.8733L10.58 13.8467C10.6533 13.8933 10.72 13.8733 10.7533 13.8533C10.7866 13.8333 10.84 13.7933 10.84 13.7066V12.2866C10.84 12.0133 11.0667 11.7866 11.34 11.7866C13.06 11.7866 14.1733 10.6733 14.1733 8.95331V4.95331C14.1733 3.23331 13.06 2.11997 11.34 2.11997H4.66665Z" fill="#191516"/>
</svg>
