<svg width="24" height="24" viewBox="0 0 24 24" fill="none" xmlns="http://www.w3.org/2000/svg">
<path d="M6.18981 22.06C5.18981 22.06 4.21981 21.67 3.44981 20.92C2.19981 19.7 1.89981 17.9 2.67981 16.34L4.29981 13.1C4.63981 12.42 4.63981 11.6 4.29981 10.91L2.67981 7.65997C1.89981 6.09997 2.19981 4.29997 3.44981 3.07997C4.69981 1.85997 6.49981 1.58997 8.04981 2.40997L19.6398 8.50997C20.9398 9.18997 21.7498 10.53 21.7498 12C21.7498 13.47 20.9398 14.81 19.6398 15.49L8.04981 21.59C7.44981 21.91 6.81981 22.06 6.18981 22.06ZM6.19981 3.43997C5.50981 3.43997 4.90981 3.75997 4.49981 4.15997C3.87981 4.75997 3.43981 5.82997 4.01981 6.99997L5.63981 10.24C6.18981 11.35 6.18981 12.66 5.63981 13.77L4.01981 17.01C3.42981 18.18 3.87981 19.25 4.49981 19.85C5.11981 20.45 6.18981 20.88 7.34981 20.27L18.9398 14.17C19.7598 13.74 20.2498 12.93 20.2498 12.01C20.2498 11.09 19.7598 10.28 18.9398 9.84997L7.34981 3.72997C6.94981 3.51997 6.55981 3.43997 6.19981 3.43997Z" fill="#3F3C3D"/>
</svg>
