<svg width="24" height="24" viewBox="0 0 24 24" fill="none" xmlns="http://www.w3.org/2000/svg">
<path d="M4.18012 19.08C3.99012 19.08 3.80012 19.01 3.65012 18.86C3.36012 18.57 3.36012 18.09 3.65012 17.8L19.5001 1.95C19.7901 1.66 20.2701 1.66 20.5601 1.95C20.8501 2.24 20.8501 2.72 20.5601 3.01L4.71012 18.86C4.56012 19.01 4.37012 19.08 4.18012 19.08Z" fill="#3F3C3D"/>
<path d="M5.24982 13.75C4.95982 13.75 4.68982 13.58 4.55982 13.3C4.06982 12.18 3.81982 11.04 3.81982 9.9C3.81982 7.18 4.99982 4.67 7.04982 3.01C8.96982 1.47 11.3498 0.91 13.7498 1.44C15.3298 1.79 16.7698 2.62 17.8998 3.84C18.1798 4.14 18.1598 4.62 17.8598 4.9C17.5598 5.18 17.0798 5.16 16.7998 4.86C15.8698 3.86 14.7098 3.18 13.4298 2.9C11.4798 2.48 9.54982 2.93 7.99982 4.18C6.29982 5.55 5.32982 7.63 5.32982 9.9C5.32982 10.83 5.53982 11.77 5.93982 12.7C6.10982 13.08 5.92982 13.52 5.54982 13.69C5.44982 13.73 5.34982 13.75 5.24982 13.75Z" fill="#3F3C3D"/>
<path d="M14.6101 19.75H9.4201C9.0301 19.75 8.4801 19.71 8.1101 19.33C7.7501 18.96 7.7601 18.49 7.7701 18.18V17.27C7.3701 16.99 6.9901 16.67 6.6301 16.31C6.3401 16.02 6.3401 15.54 6.6301 15.25C6.9201 14.96 7.4001 14.96 7.6901 15.25C8.0801 15.63 8.4901 15.97 8.9201 16.25C9.1301 16.39 9.2701 16.63 9.2701 16.88V18.22C9.2701 18.23 9.2701 18.24 9.2701 18.25C9.3101 18.25 9.3601 18.25 9.4301 18.25H14.6201C14.6901 18.25 14.7401 18.25 14.7801 18.24C14.7801 18.2 14.7801 18.16 14.7801 18.13V16.87C14.7801 16.61 14.9101 16.38 15.1301 16.24C17.6001 14.66 19.5001 11.16 18.3601 7.53C18.2401 7.13 18.4601 6.71 18.8501 6.59C19.2401 6.46 19.6701 6.69 19.7901 7.08C21.1001 11.26 19.0601 15.29 16.2801 17.27V18.04C16.2901 18.35 16.3001 18.88 15.8901 19.3C15.5801 19.6 15.1601 19.75 14.6101 19.75Z" fill="#3F3C3D"/>
<path d="M15.4998 22.75C15.4298 22.75 15.3598 22.74 15.2898 22.72C13.1298 22.1 10.8598 22.1 8.69977 22.72C8.29977 22.83 7.88977 22.6 7.76977 22.2C7.64977 21.8 7.88977 21.39 8.28977 21.27C10.7098 20.58 13.2798 20.58 15.6998 21.27C16.0998 21.38 16.3298 21.8 16.2198 22.2C16.1298 22.54 15.8298 22.75 15.4998 22.75Z" fill="#3F3C3D"/>
</svg>
