<svg width="24" height="24" viewBox="0 0 24 24" fill="none" xmlns="http://www.w3.org/2000/svg">
<path d="M14.7701 19.75H9.26012C8.82012 19.75 8.26012 19.7 7.89012 19.32C7.53012 18.95 7.54012 18.49 7.55012 18.18V17.29C5.03012 15.61 3.37012 12.69 3.37012 9.91C3.37012 7.28 4.55012 4.82 6.60012 3.17C8.65012 1.52 11.3401 0.900001 13.9701 1.48C16.4701 2.03 18.6301 3.7 19.7501 5.95C21.9201 10.32 19.8301 15.05 16.4901 17.3V18.05C16.5001 18.34 16.5101 18.87 16.1001 19.29C15.7901 19.59 15.3501 19.75 14.7701 19.75ZM9.04012 18.24C9.09012 18.24 9.16012 18.25 9.25012 18.25H14.7701C14.8701 18.25 14.9401 18.24 14.9801 18.23C14.9801 18.2 14.9801 18.16 14.9801 18.13V16.87C14.9801 16.61 15.1201 16.36 15.3401 16.23C18.3001 14.44 20.2601 10.35 18.3901 6.6C17.4701 4.75 15.6901 3.38 13.6301 2.93C11.4501 2.45 9.22012 2.96 7.52012 4.33C5.82012 5.7 4.85012 7.73 4.85012 9.91C4.85012 12.69 6.77012 15.09 8.67012 16.24C8.90012 16.38 9.03012 16.62 9.03012 16.88V18.23C9.04012 18.23 9.04012 18.23 9.04012 18.24Z" fill="#3F3C3D"/>
<path d="M15.4998 22.75C15.4298 22.75 15.3598 22.74 15.2898 22.72C13.1298 22.1 10.8598 22.1 8.69977 22.72C8.29977 22.83 7.88977 22.6 7.76977 22.2C7.64977 21.8 7.88977 21.39 8.28977 21.27C10.7098 20.58 13.2798 20.58 15.6998 21.27C16.0998 21.38 16.3298 21.8 16.2198 22.2C16.1298 22.54 15.8298 22.75 15.4998 22.75Z" fill="#3F3C3D"/>
</svg>
