<svg width="24" height="24" viewBox="0 0 24 24" fill="none" xmlns="http://www.w3.org/2000/svg">
<path d="M11.9998 10.07C10.3998 10.07 9.08984 8.76 9.08984 7.16C9.08984 5.56 10.3998 4.25 11.9998 4.25C13.5998 4.25 14.9098 5.56 14.9098 7.16C14.9098 8.76 13.5998 10.07 11.9998 10.07ZM11.9998 5.75C11.2198 5.75 10.5898 6.38 10.5898 7.16C10.5898 7.94 11.2198 8.57 11.9998 8.57C12.7798 8.57 13.4098 7.94 13.4098 7.16C13.4098 6.38 12.7798 5.75 11.9998 5.75Z" fill="#3F3C3D"/>
<path d="M6.78988 19.75C5.18988 19.75 3.87988 18.44 3.87988 16.84C3.87988 15.24 5.18988 13.93 6.78988 13.93C8.38988 13.93 9.69988 15.24 9.69988 16.84C9.69988 18.44 8.38988 19.75 6.78988 19.75ZM6.78988 15.43C6.00988 15.43 5.37988 16.06 5.37988 16.84C5.37988 17.62 6.00988 18.25 6.78988 18.25C7.56988 18.25 8.19988 17.62 8.19988 16.84C8.19988 16.06 7.55988 15.43 6.78988 15.43Z" fill="#3F3C3D"/>
<path d="M17.2098 19.75C15.6098 19.75 14.2998 18.44 14.2998 16.84C14.2998 15.24 15.6098 13.93 17.2098 13.93C18.8098 13.93 20.1198 15.24 20.1198 16.84C20.1198 18.44 18.8198 19.75 17.2098 19.75ZM17.2098 15.43C16.4298 15.43 15.7998 16.06 15.7998 16.84C15.7998 17.62 16.4298 18.25 17.2098 18.25C17.9898 18.25 18.6198 17.62 18.6198 16.84C18.6198 16.06 17.9898 15.43 17.2098 15.43Z" fill="#3F3C3D"/>
</svg>
