<svg width="24" height="24" viewBox="0 0 24 24" fill="none" xmlns="http://www.w3.org/2000/svg">
<path d="M14.2199 21.6299C13.0399 21.6299 11.3699 20.7999 10.0499 16.8299L9.32988 14.6699L7.16988 13.9499C3.20988 12.6299 2.37988 10.9599 2.37988 9.77995C2.37988 8.60995 3.20988 6.92995 7.16988 5.59995L15.6599 2.76995C17.7799 2.05995 19.5499 2.26995 20.6399 3.34995C21.7299 4.42995 21.9399 6.20995 21.2299 8.32995L18.3999 16.8199C17.0699 20.7999 15.3999 21.6299 14.2199 21.6299ZM7.63988 7.02995C4.85988 7.95995 3.86988 9.05995 3.86988 9.77995C3.86988 10.4999 4.85988 11.5999 7.63988 12.5199L10.1599 13.3599C10.3799 13.4299 10.5599 13.6099 10.6299 13.8299L11.4699 16.3499C12.3899 19.1299 13.4999 20.1199 14.2199 20.1199C14.9399 20.1199 16.0399 19.1299 16.9699 16.3499L19.7999 7.85995C20.3099 6.31995 20.2199 5.05995 19.5699 4.40995C18.9199 3.75995 17.6599 3.67995 16.1299 4.18995L7.63988 7.02995Z" fill="#3F3C3D"/>
<path d="M10.1098 14.4C9.9198 14.4 9.7298 14.33 9.5798 14.18C9.2898 13.89 9.2898 13.41 9.5798 13.12L13.1598 9.53C13.4498 9.24 13.9298 9.24 14.2198 9.53C14.5098 9.82 14.5098 10.3 14.2198 10.59L10.6398 14.18C10.4998 14.33 10.2998 14.4 10.1098 14.4Z" fill="#3F3C3D"/>
</svg>
