<svg width="24" height="24" viewBox="0 0 24 24" fill="none" xmlns="http://www.w3.org/2000/svg">
<path d="M12.0701 21.98C10.6601 21.98 9.24009 21.44 8.17009 20.37L3.64009 15.84C2.54009 14.74 1.96009 13.22 2.03009 11.67L2.27009 6.66999C2.38009 4.27999 4.27009 2.38999 6.67009 2.26999L11.6701 2.02999C13.2201 1.96999 14.7401 2.53999 15.8401 3.63999L20.3701 8.16999C22.5201 10.32 22.5201 13.83 20.3701 15.98L15.9801 20.37C14.9001 21.44 13.4901 21.98 12.0701 21.98ZM4.70009 14.77L9.23009 19.3C9.99009 20.06 11.0001 20.48 12.0701 20.48C13.1401 20.48 14.1501 20.06 14.9101 19.3L19.3001 14.91C20.0601 14.15 20.4801 13.14 20.4801 12.07C20.4801 11 20.0601 9.98999 19.3001 9.22999L14.7701 4.69999C13.9701 3.89999 12.8601 3.46999 11.7401 3.52999L6.74009 3.76999C5.11009 3.83999 3.84009 5.10999 3.76009 6.72999L3.52009 11.73C3.47009 12.86 3.90009 13.97 4.70009 14.77Z" fill="#3F3C3D"/>
<path d="M9.5 12.75C7.71 12.75 6.25 11.29 6.25 9.5C6.25 7.71 7.71 6.25 9.5 6.25C11.29 6.25 12.75 7.71 12.75 9.5C12.75 11.29 11.29 12.75 9.5 12.75ZM9.5 7.75C8.54 7.75 7.75 8.54 7.75 9.5C7.75 10.46 8.54 11.25 9.5 11.25C10.46 11.25 11.25 10.46 11.25 9.5C11.25 8.54 10.46 7.75 9.5 7.75Z" fill="#3F3C3D"/>
</svg>
