<svg width="300" height="32" viewBox="0 0 300 32" fill="none" xmlns="http://www.w3.org/2000/svg">
<rect x="0.5" y="0.5" width="299" height="31" rx="7.5" fill="#ED3A3A" fill-opacity="0.2"/>
<path d="M28 26C33.5 26 38 21.5 38 16C38 10.5 33.5 6 28 6C22.5 6 18 10.5 18 16C18 21.5 22.5 26 28 26Z" stroke="#ED3A3A" stroke-width="1.5" stroke-linecap="round" stroke-linejoin="round"/>
<path d="M25.1699 18.83L30.8299 13.17" stroke="#ED3A3A" stroke-width="1.5" stroke-linecap="round" stroke-linejoin="round"/>
<path d="M30.8299 18.83L25.1699 13.17" stroke="#ED3A3A" stroke-width="1.5" stroke-linecap="round" stroke-linejoin="round"/>
<path d="M51.14 20.1C50.76 20.1 50.4067 20.05 50.08 19.95C49.76 19.85 49.4667 19.7 49.2 19.5C48.94 19.2933 48.7067 19.04 48.5 18.74L49.24 17.89C49.5667 18.3567 49.88 18.68 50.18 18.86C50.48 19.04 50.8367 19.13 51.25 19.13C51.5033 19.13 51.7333 19.09 51.94 19.01C52.1467 18.93 52.31 18.82 52.43 18.68C52.55 18.54 52.61 18.38 52.61 18.2C52.61 18.08 52.59 17.9667 52.55 17.86C52.51 17.7533 52.4467 17.6567 52.36 17.57C52.28 17.4833 52.1733 17.4033 52.04 17.33C51.9133 17.2567 51.7633 17.1933 51.59 17.14C51.4167 17.08 51.2167 17.03 50.99 16.99C50.63 16.9167 50.3167 16.82 50.05 16.7C49.7833 16.58 49.56 16.43 49.38 16.25C49.2 16.07 49.0667 15.8667 48.98 15.64C48.8933 15.4067 48.85 15.1467 48.85 14.86C48.85 14.58 48.91 14.32 49.03 14.08C49.1567 13.84 49.3267 13.6333 49.54 13.46C49.76 13.28 50.0167 13.1433 50.31 13.05C50.6033 12.95 50.92 12.9 51.26 12.9C51.62 12.9 51.95 12.9467 52.25 13.04C52.55 13.1333 52.8167 13.2733 53.05 13.46C53.2833 13.64 53.4767 13.8633 53.63 14.13L52.87 14.88C52.7367 14.66 52.5867 14.4767 52.42 14.33C52.2533 14.1767 52.07 14.0633 51.87 13.99C51.67 13.91 51.4567 13.87 51.23 13.87C50.97 13.87 50.7433 13.91 50.55 13.99C50.3567 14.07 50.2033 14.1833 50.09 14.33C49.9833 14.47 49.93 14.6367 49.93 14.83C49.93 14.97 49.9567 15.1 50.01 15.22C50.0633 15.3333 50.1433 15.4367 50.25 15.53C50.3633 15.6167 50.5133 15.6967 50.7 15.77C50.8867 15.8367 51.11 15.8967 51.37 15.95C51.7367 16.03 52.0633 16.1333 52.35 16.26C52.6367 16.38 52.88 16.5233 53.08 16.69C53.28 16.8567 53.43 17.0433 53.53 17.25C53.6367 17.4567 53.69 17.68 53.69 17.92C53.69 18.3667 53.5867 18.7533 53.38 19.08C53.1733 19.4067 52.88 19.66 52.5 19.84C52.12 20.0133 51.6667 20.1 51.14 20.1ZM55.8402 22.3L56.9002 19.85L56.9102 20.67L54.2902 14.75H55.4902L57.1302 18.61C57.1636 18.6767 57.2036 18.78 57.2502 18.92C57.2969 19.0533 57.3369 19.1867 57.3702 19.32L57.1102 19.38C57.1636 19.24 57.2136 19.1 57.2602 18.96C57.3136 18.82 57.3636 18.68 57.4102 18.54L58.7802 14.75H60.0002L57.8402 20L56.9502 22.3H55.8402ZM60.7508 20V14.75H61.7908V15.87L61.6008 15.99C61.6541 15.8167 61.7374 15.65 61.8508 15.49C61.9708 15.33 62.1141 15.19 62.2808 15.07C62.4541 14.9433 62.6374 14.8433 62.8308 14.77C63.0308 14.6967 63.2341 14.66 63.4408 14.66C63.7408 14.66 64.0041 14.71 64.2308 14.81C64.4574 14.91 64.6441 15.06 64.7908 15.26C64.9374 15.46 65.0441 15.71 65.1108 16.01L64.9508 15.97L65.0208 15.8C65.0941 15.6467 65.1941 15.5033 65.3208 15.37C65.4541 15.23 65.6041 15.1067 65.7708 15C65.9374 14.8933 66.1141 14.81 66.3008 14.75C66.4874 14.69 66.6708 14.66 66.8508 14.66C67.2441 14.66 67.5674 14.74 67.8208 14.9C68.0808 15.06 68.2741 15.3033 68.4008 15.63C68.5341 15.9567 68.6008 16.3633 68.6008 16.85V20H67.5608V16.91C67.5608 16.61 67.5208 16.3667 67.4408 16.18C67.3674 15.9867 67.2541 15.8433 67.1008 15.75C66.9474 15.6567 66.7508 15.61 66.5108 15.61C66.3241 15.61 66.1474 15.6433 65.9808 15.71C65.8208 15.77 65.6808 15.8567 65.5608 15.97C65.4408 16.0833 65.3474 16.2167 65.2808 16.37C65.2141 16.5167 65.1808 16.68 65.1808 16.86V20H64.1408V16.89C64.1408 16.6167 64.1008 16.3867 64.0208 16.2C63.9408 16.0067 63.8241 15.86 63.6708 15.76C63.5174 15.66 63.3308 15.61 63.1108 15.61C62.9241 15.61 62.7508 15.6433 62.5908 15.71C62.4308 15.77 62.2908 15.8567 62.1708 15.97C62.0508 16.0767 61.9574 16.2067 61.8908 16.36C61.8241 16.5067 61.7908 16.6667 61.7908 16.84V20H60.7508ZM72.7398 20.1C72.5131 20.1 72.2864 20.0633 72.0598 19.99C71.8398 19.9167 71.6364 19.82 71.4498 19.7C71.2698 19.5733 71.1164 19.4367 70.9898 19.29C70.8698 19.1367 70.7898 18.9833 70.7498 18.83L71.0098 18.69V19.97H69.9798V12.6H71.0098V15.95L70.8498 15.86C70.8831 15.7067 70.9564 15.56 71.0698 15.42C71.1831 15.2733 71.3264 15.1433 71.4998 15.03C71.6798 14.91 71.8731 14.8167 72.0798 14.75C72.2864 14.6767 72.4964 14.64 72.7098 14.64C73.1831 14.64 73.6031 14.7567 73.9698 14.99C74.3364 15.2233 74.6264 15.5467 74.8398 15.96C75.0531 16.3667 75.1598 16.8333 75.1598 17.36C75.1598 17.8867 75.0531 18.3567 74.8398 18.77C74.6331 19.1833 74.3464 19.51 73.9798 19.75C73.6131 19.9833 73.1998 20.1 72.7398 20.1ZM72.5698 19.16C72.8764 19.16 73.1498 19.0833 73.3898 18.93C73.6298 18.77 73.8198 18.5567 73.9598 18.29C74.0998 18.0167 74.1698 17.7067 74.1698 17.36C74.1698 17.02 74.0998 16.7167 73.9598 16.45C73.8264 16.1767 73.6398 15.9633 73.3998 15.81C73.1598 15.6567 72.8831 15.58 72.5698 15.58C72.2564 15.58 71.9798 15.6567 71.7398 15.81C71.4998 15.9633 71.3098 16.1767 71.1698 16.45C71.0298 16.7167 70.9598 17.02 70.9598 17.36C70.9598 17.7067 71.0298 18.0167 71.1698 18.29C71.3098 18.5567 71.4998 18.77 71.7398 18.93C71.9798 19.0833 72.2564 19.16 72.5698 19.16ZM78.6386 20.1C78.1253 20.1 77.6653 19.9833 77.2586 19.75C76.8586 19.51 76.5419 19.1867 76.3086 18.78C76.0753 18.3667 75.9586 17.8967 75.9586 17.37C75.9586 16.8433 76.0753 16.3767 76.3086 15.97C76.5419 15.5567 76.8586 15.2333 77.2586 15C77.6653 14.76 78.1253 14.64 78.6386 14.64C79.1453 14.64 79.5986 14.76 79.9986 15C80.4053 15.2333 80.7253 15.5567 80.9586 15.97C81.1919 16.3767 81.3086 16.8433 81.3086 17.37C81.3086 17.8967 81.1919 18.3667 80.9586 18.78C80.7253 19.1867 80.4053 19.51 79.9986 19.75C79.5986 19.9833 79.1453 20.1 78.6386 20.1ZM78.6386 19.16C78.9519 19.16 79.2319 19.0833 79.4786 18.93C79.7253 18.77 79.9186 18.5567 80.0586 18.29C80.1986 18.0167 80.2653 17.71 80.2586 17.37C80.2653 17.0233 80.1986 16.7167 80.0586 16.45C79.9186 16.1767 79.7253 15.9633 79.4786 15.81C79.2319 15.6567 78.9519 15.58 78.6386 15.58C78.3253 15.58 78.0419 15.66 77.7886 15.82C77.5419 15.9733 77.3486 16.1867 77.2086 16.46C77.0686 16.7267 77.0019 17.03 77.0086 17.37C77.0019 17.71 77.0686 18.0167 77.2086 18.29C77.3486 18.5567 77.5419 18.77 77.7886 18.93C78.0419 19.0833 78.3253 19.16 78.6386 19.16ZM82.4509 20V12.6H83.4809V20H82.4509Z" fill="#131212"/>
<rect x="0.5" y="0.5" width="299" height="31" rx="7.5" stroke="#ED3A3A"/>
</svg>
