<svg width="300" height="32" viewBox="0 0 300 32" fill="none" xmlns="http://www.w3.org/2000/svg">
<rect x="0.5" y="0.5" width="299" height="31" rx="7.5" fill="#ED3A3A" fill-opacity="0.2"/>
<path d="M28 26C33.5 26 38 21.5 38 16C38 10.5 33.5 6 28 6C22.5 6 18 10.5 18 16C18 21.5 22.5 26 28 26Z" stroke="#ED3A3A" stroke-width="1.5" stroke-linecap="round" stroke-linejoin="round"/>
<path d="M25.1699 18.83L30.8299 13.17" stroke="#ED3A3A" stroke-width="1.5" stroke-linecap="round" stroke-linejoin="round"/>
<path d="M30.8299 18.83L25.1699 13.17" stroke="#ED3A3A" stroke-width="1.5" stroke-linecap="round" stroke-linejoin="round"/>
<path d="M50.31 20V14.04H48.35V13H53.41V14.04H51.39V20H50.31ZM54.4817 20V12.6H55.5117V15.83L55.3317 15.95C55.3984 15.7167 55.5284 15.5033 55.7217 15.31C55.9151 15.11 56.1451 14.95 56.4117 14.83C56.6784 14.7033 56.9517 14.64 57.2317 14.64C57.6317 14.64 57.9651 14.72 58.2317 14.88C58.4984 15.0333 58.6984 15.27 58.8317 15.59C58.9651 15.91 59.0317 16.3133 59.0317 16.8V20H58.0017V16.87C58.0017 16.57 57.9617 16.3233 57.8817 16.13C57.8017 15.93 57.6784 15.7867 57.5117 15.7C57.3451 15.6067 57.1384 15.5667 56.8917 15.58C56.6917 15.58 56.5084 15.6133 56.3417 15.68C56.1751 15.74 56.0284 15.8267 55.9017 15.94C55.7817 16.0533 55.6851 16.1867 55.6117 16.34C55.5451 16.4867 55.5117 16.6467 55.5117 16.82V20H55.0017C54.9151 20 54.8284 20 54.7417 20C54.6551 20 54.5684 20 54.4817 20ZM60.599 20V14.75H61.629V20H60.599ZM61.099 13.59C60.879 13.59 60.709 13.5333 60.589 13.42C60.469 13.3067 60.409 13.1467 60.409 12.94C60.409 12.7467 60.469 12.59 60.589 12.47C60.7157 12.35 60.8857 12.29 61.099 12.29C61.319 12.29 61.489 12.3467 61.609 12.46C61.729 12.5733 61.789 12.7333 61.789 12.94C61.789 13.1333 61.7257 13.29 61.599 13.41C61.479 13.53 61.3123 13.59 61.099 13.59ZM64.9622 20.1C64.5222 20.1 64.1255 20.0233 63.7722 19.87C63.4189 19.7167 63.1255 19.49 62.8922 19.19L63.5922 18.59C63.7922 18.8233 64.0089 18.9933 64.2422 19.1C64.4822 19.2 64.7522 19.25 65.0522 19.25C65.1722 19.25 65.2822 19.2367 65.3822 19.21C65.4889 19.1767 65.5789 19.13 65.6522 19.07C65.7322 19.01 65.7922 18.94 65.8322 18.86C65.8722 18.7733 65.8922 18.68 65.8922 18.58C65.8922 18.4067 65.8289 18.2667 65.7022 18.16C65.6355 18.1133 65.5289 18.0633 65.3822 18.01C65.2422 17.95 65.0589 17.89 64.8322 17.83C64.4455 17.73 64.1289 17.6167 63.8822 17.49C63.6355 17.3633 63.4455 17.22 63.3122 17.06C63.2122 16.9333 63.1389 16.7967 63.0922 16.65C63.0455 16.4967 63.0222 16.33 63.0222 16.15C63.0222 15.93 63.0689 15.73 63.1622 15.55C63.2622 15.3633 63.3955 15.2033 63.5622 15.07C63.7355 14.93 63.9355 14.8233 64.1622 14.75C64.3955 14.6767 64.6422 14.64 64.9022 14.64C65.1489 14.64 65.3922 14.6733 65.6322 14.74C65.8789 14.8067 66.1055 14.9033 66.3122 15.03C66.5189 15.1567 66.6922 15.3067 66.8322 15.48L66.2422 16.13C66.1155 16.0033 65.9755 15.8933 65.8222 15.8C65.6755 15.7 65.5255 15.6233 65.3722 15.57C65.2189 15.5167 65.0789 15.49 64.9522 15.49C64.8122 15.49 64.6855 15.5033 64.5722 15.53C64.4589 15.5567 64.3622 15.5967 64.2822 15.65C64.2089 15.7033 64.1522 15.77 64.1122 15.85C64.0722 15.93 64.0522 16.02 64.0522 16.12C64.0589 16.2067 64.0789 16.29 64.1122 16.37C64.1522 16.4433 64.2055 16.5067 64.2722 16.56C64.3455 16.6133 64.4555 16.67 64.6022 16.73C64.7489 16.79 64.9355 16.8467 65.1622 16.9C65.4955 16.9867 65.7689 17.0833 65.9822 17.19C66.2022 17.29 66.3755 17.4067 66.5022 17.54C66.6355 17.6667 66.7289 17.8133 66.7822 17.98C66.8355 18.1467 66.8622 18.3333 66.8622 18.54C66.8622 18.84 66.7755 19.11 66.6022 19.35C66.4355 19.5833 66.2089 19.7667 65.9222 19.9C65.6355 20.0333 65.3155 20.1 64.9622 20.1ZM70.9701 20V14.75H72.0001V20H70.9701ZM71.4701 13.59C71.2501 13.59 71.0801 13.5333 70.9601 13.42C70.8401 13.3067 70.7801 13.1467 70.7801 12.94C70.7801 12.7467 70.8401 12.59 70.9601 12.47C71.0867 12.35 71.2567 12.29 71.4701 12.29C71.6901 12.29 71.8601 12.3467 71.9801 12.46C72.1001 12.5733 72.1601 12.7333 72.1601 12.94C72.1601 13.1333 72.0967 13.29 71.9701 13.41C71.8501 13.53 71.6834 13.59 71.4701 13.59ZM75.3333 20.1C74.8933 20.1 74.4966 20.0233 74.1433 19.87C73.7899 19.7167 73.4966 19.49 73.2633 19.19L73.9633 18.59C74.1633 18.8233 74.3799 18.9933 74.6133 19.1C74.8533 19.2 75.1233 19.25 75.4233 19.25C75.5433 19.25 75.6533 19.2367 75.7533 19.21C75.8599 19.1767 75.9499 19.13 76.0233 19.07C76.1033 19.01 76.1633 18.94 76.2033 18.86C76.2433 18.7733 76.2633 18.68 76.2633 18.58C76.2633 18.4067 76.1999 18.2667 76.0733 18.16C76.0066 18.1133 75.8999 18.0633 75.7533 18.01C75.6133 17.95 75.4299 17.89 75.2033 17.83C74.8166 17.73 74.4999 17.6167 74.2533 17.49C74.0066 17.3633 73.8166 17.22 73.6833 17.06C73.5833 16.9333 73.5099 16.7967 73.4633 16.65C73.4166 16.4967 73.3933 16.33 73.3933 16.15C73.3933 15.93 73.4399 15.73 73.5333 15.55C73.6333 15.3633 73.7666 15.2033 73.9333 15.07C74.1066 14.93 74.3066 14.8233 74.5333 14.75C74.7666 14.6767 75.0133 14.64 75.2733 14.64C75.5199 14.64 75.7633 14.6733 76.0033 14.74C76.2499 14.8067 76.4766 14.9033 76.6833 15.03C76.8899 15.1567 77.0633 15.3067 77.2033 15.48L76.6133 16.13C76.4866 16.0033 76.3466 15.8933 76.1933 15.8C76.0466 15.7 75.8966 15.6233 75.7433 15.57C75.5899 15.5167 75.4499 15.49 75.3233 15.49C75.1833 15.49 75.0566 15.5033 74.9433 15.53C74.8299 15.5567 74.7333 15.5967 74.6533 15.65C74.5799 15.7033 74.5233 15.77 74.4833 15.85C74.4433 15.93 74.4233 16.02 74.4233 16.12C74.4299 16.2067 74.4499 16.29 74.4833 16.37C74.5233 16.4433 74.5766 16.5067 74.6433 16.56C74.7166 16.6133 74.8266 16.67 74.9733 16.73C75.1199 16.79 75.3066 16.8467 75.5333 16.9C75.8666 16.9867 76.1399 17.0833 76.3533 17.19C76.5733 17.29 76.7466 17.4067 76.8733 17.54C77.0066 17.6667 77.0999 17.8133 77.1533 17.98C77.2066 18.1467 77.2333 18.3333 77.2333 18.54C77.2333 18.84 77.1466 19.11 76.9733 19.35C76.8066 19.5833 76.5799 19.7667 76.2933 19.9C76.0066 20.0333 75.6866 20.1 75.3333 20.1ZM83.1912 20.1C82.7578 20.1 82.3612 19.98 82.0012 19.74C81.6478 19.5 81.3645 19.1733 81.1512 18.76C80.9378 18.3467 80.8312 17.88 80.8312 17.36C80.8312 16.8333 80.9378 16.3667 81.1512 15.96C81.3712 15.5467 81.6645 15.2233 82.0312 14.99C82.4045 14.7567 82.8212 14.64 83.2812 14.64C83.5545 14.64 83.8045 14.68 84.0312 14.76C84.2578 14.84 84.4545 14.9533 84.6212 15.1C84.7945 15.24 84.9345 15.4033 85.0412 15.59C85.1545 15.7767 85.2245 15.9767 85.2512 16.19L85.0212 16.11V14.75H86.0612V20H85.0212V18.75L85.2612 18.68C85.2212 18.86 85.1378 19.0367 85.0112 19.21C84.8912 19.3767 84.7345 19.5267 84.5412 19.66C84.3545 19.7933 84.1445 19.9 83.9112 19.98C83.6845 20.06 83.4445 20.1 83.1912 20.1ZM83.4612 19.15C83.7745 19.15 84.0512 19.0733 84.2912 18.92C84.5312 18.7667 84.7178 18.5567 84.8512 18.29C84.9912 18.0167 85.0612 17.7067 85.0612 17.36C85.0612 17.02 84.9912 16.7167 84.8512 16.45C84.7178 16.1833 84.5312 15.9733 84.2912 15.82C84.0512 15.6667 83.7745 15.59 83.4612 15.59C83.1545 15.59 82.8812 15.6667 82.6412 15.82C82.4078 15.9733 82.2212 16.1833 82.0812 16.45C81.9478 16.7167 81.8812 17.02 81.8812 17.36C81.8812 17.7067 81.9478 18.0167 82.0812 18.29C82.2212 18.5567 82.4078 18.7667 82.6412 18.92C82.8812 19.0733 83.1545 19.15 83.4612 19.15ZM87.4993 20V14.75H88.5293V15.83L88.3493 15.95C88.416 15.7167 88.546 15.5033 88.7393 15.31C88.9326 15.11 89.1626 14.95 89.4293 14.83C89.696 14.7033 89.9693 14.64 90.2493 14.64C90.6493 14.64 90.9826 14.72 91.2493 14.88C91.516 15.0333 91.716 15.27 91.8493 15.59C91.9826 15.91 92.0493 16.3133 92.0493 16.8V20H91.0193V16.87C91.0193 16.57 90.9793 16.3233 90.8993 16.13C90.8193 15.93 90.696 15.7867 90.5293 15.7C90.3626 15.6067 90.156 15.5667 89.9093 15.58C89.7093 15.58 89.526 15.6133 89.3593 15.68C89.1926 15.74 89.046 15.8267 88.9193 15.94C88.7993 16.0533 88.7026 16.1867 88.6293 16.34C88.5626 16.4867 88.5293 16.6467 88.5293 16.82V20H88.0193C87.9326 20 87.846 20 87.7593 20C87.6726 20 87.586 20 87.4993 20ZM98.6993 20.1C98.1593 20.1 97.6793 19.9867 97.2593 19.76C96.846 19.5267 96.5193 19.21 96.2793 18.81C96.046 18.41 95.9293 17.95 95.9293 17.43C95.9293 17.0167 95.996 16.64 96.1293 16.3C96.2626 15.96 96.446 15.6667 96.6793 15.42C96.9193 15.1667 97.2026 14.9733 97.5293 14.84C97.8626 14.7 98.2226 14.63 98.6093 14.63C98.9493 14.63 99.266 14.6967 99.5593 14.83C99.8526 14.9567 100.106 15.1333 100.319 15.36C100.539 15.5867 100.706 15.8567 100.819 16.17C100.939 16.4767 100.996 16.8133 100.989 17.18L100.979 17.62H96.6893L96.4593 16.8H100.089L99.9393 16.97V16.73C99.9193 16.51 99.846 16.3133 99.7193 16.14C99.5926 15.9667 99.4326 15.83 99.2393 15.73C99.046 15.63 98.836 15.58 98.6093 15.58C98.2493 15.58 97.946 15.65 97.6993 15.79C97.4526 15.9233 97.266 16.1233 97.1393 16.39C97.0126 16.65 96.9493 16.9733 96.9493 17.36C96.9493 17.7267 97.026 18.0467 97.1793 18.32C97.3326 18.5867 97.5493 18.7933 97.8293 18.94C98.1093 19.0867 98.4326 19.16 98.7993 19.16C99.0593 19.16 99.2993 19.1167 99.5193 19.03C99.746 18.9433 99.9893 18.7867 100.249 18.56L100.769 19.29C100.609 19.45 100.413 19.59 100.179 19.71C99.9526 19.83 99.7093 19.9267 99.4493 20C99.196 20.0667 98.946 20.1 98.6993 20.1ZM102.109 20V14.75H103.149V16.4L103.049 16C103.122 15.7467 103.245 15.5167 103.419 15.31C103.599 15.1033 103.802 14.94 104.029 14.82C104.262 14.7 104.502 14.64 104.749 14.64C104.862 14.64 104.969 14.65 105.069 14.67C105.175 14.69 105.259 14.7133 105.319 14.74L105.049 15.86C104.969 15.8267 104.879 15.8 104.779 15.78C104.685 15.7533 104.592 15.74 104.499 15.74C104.319 15.74 104.145 15.7767 103.979 15.85C103.819 15.9167 103.675 16.0133 103.549 16.14C103.429 16.26 103.332 16.4033 103.259 16.57C103.185 16.73 103.149 16.9067 103.149 17.1V20H102.109ZM106.142 20V14.75H107.182V16.4L107.082 16C107.155 15.7467 107.279 15.5167 107.452 15.31C107.632 15.1033 107.835 14.94 108.062 14.82C108.295 14.7 108.535 14.64 108.782 14.64C108.895 14.64 109.002 14.65 109.102 14.67C109.209 14.69 109.292 14.7133 109.352 14.74L109.082 15.86C109.002 15.8267 108.912 15.8 108.812 15.78C108.719 15.7533 108.625 15.74 108.532 15.74C108.352 15.74 108.179 15.7767 108.012 15.85C107.852 15.9167 107.709 16.0133 107.582 16.14C107.462 16.26 107.365 16.4033 107.292 16.57C107.219 16.73 107.182 16.9067 107.182 17.1V20H106.142ZM112.31 20.1C111.797 20.1 111.337 19.9833 110.93 19.75C110.53 19.51 110.214 19.1867 109.98 18.78C109.747 18.3667 109.63 17.8967 109.63 17.37C109.63 16.8433 109.747 16.3767 109.98 15.97C110.214 15.5567 110.53 15.2333 110.93 15C111.337 14.76 111.797 14.64 112.31 14.64C112.817 14.64 113.27 14.76 113.67 15C114.077 15.2333 114.397 15.5567 114.63 15.97C114.864 16.3767 114.98 16.8433 114.98 17.37C114.98 17.8967 114.864 18.3667 114.63 18.78C114.397 19.1867 114.077 19.51 113.67 19.75C113.27 19.9833 112.817 20.1 112.31 20.1ZM112.31 19.16C112.624 19.16 112.904 19.0833 113.15 18.93C113.397 18.77 113.59 18.5567 113.73 18.29C113.87 18.0167 113.937 17.71 113.93 17.37C113.937 17.0233 113.87 16.7167 113.73 16.45C113.59 16.1767 113.397 15.9633 113.15 15.81C112.904 15.6567 112.624 15.58 112.31 15.58C111.997 15.58 111.714 15.66 111.46 15.82C111.214 15.9733 111.02 16.1867 110.88 16.46C110.74 16.7267 110.674 17.03 110.68 17.37C110.674 17.71 110.74 18.0167 110.88 18.29C111.02 18.5567 111.214 18.77 111.46 18.93C111.714 19.0833 111.997 19.16 112.31 19.16ZM116.103 20V14.75H117.143V16.4L117.043 16C117.116 15.7467 117.239 15.5167 117.413 15.31C117.593 15.1033 117.796 14.94 118.023 14.82C118.256 14.7 118.496 14.64 118.743 14.64C118.856 14.64 118.963 14.65 119.063 14.67C119.169 14.69 119.253 14.7133 119.313 14.74L119.043 15.86C118.963 15.8267 118.873 15.8 118.773 15.78C118.679 15.7533 118.586 15.74 118.493 15.74C118.313 15.74 118.139 15.7767 117.973 15.85C117.813 15.9167 117.669 16.0133 117.543 16.14C117.423 16.26 117.326 16.4033 117.253 16.57C117.179 16.73 117.143 16.9067 117.143 17.1V20H116.103ZM122.919 20V14.75H123.959V15.87L123.769 15.99C123.822 15.8167 123.905 15.65 124.019 15.49C124.139 15.33 124.282 15.19 124.449 15.07C124.622 14.9433 124.805 14.8433 124.999 14.77C125.199 14.6967 125.402 14.66 125.609 14.66C125.909 14.66 126.172 14.71 126.399 14.81C126.625 14.91 126.812 15.06 126.959 15.26C127.105 15.46 127.212 15.71 127.279 16.01L127.119 15.97L127.189 15.8C127.262 15.6467 127.362 15.5033 127.489 15.37C127.622 15.23 127.772 15.1067 127.939 15C128.105 14.8933 128.282 14.81 128.469 14.75C128.655 14.69 128.839 14.66 129.019 14.66C129.412 14.66 129.735 14.74 129.989 14.9C130.249 15.06 130.442 15.3033 130.569 15.63C130.702 15.9567 130.769 16.3633 130.769 16.85V20H129.729V16.91C129.729 16.61 129.689 16.3667 129.609 16.18C129.535 15.9867 129.422 15.8433 129.269 15.75C129.115 15.6567 128.919 15.61 128.679 15.61C128.492 15.61 128.315 15.6433 128.149 15.71C127.989 15.77 127.849 15.8567 127.729 15.97C127.609 16.0833 127.515 16.2167 127.449 16.37C127.382 16.5167 127.349 16.68 127.349 16.86V20H126.309V16.89C126.309 16.6167 126.269 16.3867 126.189 16.2C126.109 16.0067 125.992 15.86 125.839 15.76C125.685 15.66 125.499 15.61 125.279 15.61C125.092 15.61 124.919 15.6433 124.759 15.71C124.599 15.77 124.459 15.8567 124.339 15.97C124.219 16.0767 124.125 16.2067 124.059 16.36C123.992 16.5067 123.959 16.6667 123.959 16.84V20H122.919ZM134.598 20.1C134.058 20.1 133.578 19.9867 133.158 19.76C132.744 19.5267 132.418 19.21 132.178 18.81C131.944 18.41 131.828 17.95 131.828 17.43C131.828 17.0167 131.894 16.64 132.028 16.3C132.161 15.96 132.344 15.6667 132.578 15.42C132.818 15.1667 133.101 14.9733 133.428 14.84C133.761 14.7 134.121 14.63 134.508 14.63C134.848 14.63 135.164 14.6967 135.458 14.83C135.751 14.9567 136.004 15.1333 136.218 15.36C136.438 15.5867 136.604 15.8567 136.718 16.17C136.838 16.4767 136.894 16.8133 136.888 17.18L136.878 17.62H132.588L132.358 16.8H135.988L135.838 16.97V16.73C135.818 16.51 135.744 16.3133 135.618 16.14C135.491 15.9667 135.331 15.83 135.138 15.73C134.944 15.63 134.734 15.58 134.508 15.58C134.148 15.58 133.844 15.65 133.598 15.79C133.351 15.9233 133.164 16.1233 133.038 16.39C132.911 16.65 132.848 16.9733 132.848 17.36C132.848 17.7267 132.924 18.0467 133.078 18.32C133.231 18.5867 133.448 18.7933 133.728 18.94C134.008 19.0867 134.331 19.16 134.698 19.16C134.958 19.16 135.198 19.1167 135.418 19.03C135.644 18.9433 135.888 18.7867 136.148 18.56L136.668 19.29C136.508 19.45 136.311 19.59 136.078 19.71C135.851 19.83 135.608 19.9267 135.348 20C135.094 20.0667 134.844 20.1 134.598 20.1ZM139.757 20.1C139.317 20.1 138.92 20.0233 138.567 19.87C138.214 19.7167 137.92 19.49 137.687 19.19L138.387 18.59C138.587 18.8233 138.804 18.9933 139.037 19.1C139.277 19.2 139.547 19.25 139.847 19.25C139.967 19.25 140.077 19.2367 140.177 19.21C140.284 19.1767 140.374 19.13 140.447 19.07C140.527 19.01 140.587 18.94 140.627 18.86C140.667 18.7733 140.687 18.68 140.687 18.58C140.687 18.4067 140.624 18.2667 140.497 18.16C140.43 18.1133 140.324 18.0633 140.177 18.01C140.037 17.95 139.854 17.89 139.627 17.83C139.24 17.73 138.924 17.6167 138.677 17.49C138.43 17.3633 138.24 17.22 138.107 17.06C138.007 16.9333 137.934 16.7967 137.887 16.65C137.84 16.4967 137.817 16.33 137.817 16.15C137.817 15.93 137.864 15.73 137.957 15.55C138.057 15.3633 138.19 15.2033 138.357 15.07C138.53 14.93 138.73 14.8233 138.957 14.75C139.19 14.6767 139.437 14.64 139.697 14.64C139.944 14.64 140.187 14.6733 140.427 14.74C140.674 14.8067 140.9 14.9033 141.107 15.03C141.314 15.1567 141.487 15.3067 141.627 15.48L141.037 16.13C140.91 16.0033 140.77 15.8933 140.617 15.8C140.47 15.7 140.32 15.6233 140.167 15.57C140.014 15.5167 139.874 15.49 139.747 15.49C139.607 15.49 139.48 15.5033 139.367 15.53C139.254 15.5567 139.157 15.5967 139.077 15.65C139.004 15.7033 138.947 15.77 138.907 15.85C138.867 15.93 138.847 16.02 138.847 16.12C138.854 16.2067 138.874 16.29 138.907 16.37C138.947 16.4433 139 16.5067 139.067 16.56C139.14 16.6133 139.25 16.67 139.397 16.73C139.544 16.79 139.73 16.8467 139.957 16.9C140.29 16.9867 140.564 17.0833 140.777 17.19C140.997 17.29 141.17 17.4067 141.297 17.54C141.43 17.6667 141.524 17.8133 141.577 17.98C141.63 18.1467 141.657 18.3333 141.657 18.54C141.657 18.84 141.57 19.11 141.397 19.35C141.23 19.5833 141.004 19.7667 140.717 19.9C140.43 20.0333 140.11 20.1 139.757 20.1ZM144.542 20.1C144.102 20.1 143.706 20.0233 143.352 19.87C142.999 19.7167 142.706 19.49 142.472 19.19L143.172 18.59C143.372 18.8233 143.589 18.9933 143.822 19.1C144.062 19.2 144.332 19.25 144.632 19.25C144.752 19.25 144.862 19.2367 144.962 19.21C145.069 19.1767 145.159 19.13 145.232 19.07C145.312 19.01 145.372 18.94 145.412 18.86C145.452 18.7733 145.472 18.68 145.472 18.58C145.472 18.4067 145.409 18.2667 145.282 18.16C145.216 18.1133 145.109 18.0633 144.962 18.01C144.822 17.95 144.639 17.89 144.412 17.83C144.026 17.73 143.709 17.6167 143.462 17.49C143.216 17.3633 143.026 17.22 142.892 17.06C142.792 16.9333 142.719 16.7967 142.672 16.65C142.626 16.4967 142.602 16.33 142.602 16.15C142.602 15.93 142.649 15.73 142.742 15.55C142.842 15.3633 142.976 15.2033 143.142 15.07C143.316 14.93 143.516 14.8233 143.742 14.75C143.976 14.6767 144.222 14.64 144.482 14.64C144.729 14.64 144.972 14.6733 145.212 14.74C145.459 14.8067 145.686 14.9033 145.892 15.03C146.099 15.1567 146.272 15.3067 146.412 15.48L145.822 16.13C145.696 16.0033 145.556 15.8933 145.402 15.8C145.256 15.7 145.106 15.6233 144.952 15.57C144.799 15.5167 144.659 15.49 144.532 15.49C144.392 15.49 144.266 15.5033 144.152 15.53C144.039 15.5567 143.942 15.5967 143.862 15.65C143.789 15.7033 143.732 15.77 143.692 15.85C143.652 15.93 143.632 16.02 143.632 16.12C143.639 16.2067 143.659 16.29 143.692 16.37C143.732 16.4433 143.786 16.5067 143.852 16.56C143.926 16.6133 144.036 16.67 144.182 16.73C144.329 16.79 144.516 16.8467 144.742 16.9C145.076 16.9867 145.349 17.0833 145.562 17.19C145.782 17.29 145.956 17.4067 146.082 17.54C146.216 17.6667 146.309 17.8133 146.362 17.98C146.416 18.1467 146.442 18.3333 146.442 18.54C146.442 18.84 146.356 19.11 146.182 19.35C146.016 19.5833 145.789 19.7667 145.502 19.9C145.216 20.0333 144.896 20.1 144.542 20.1ZM149.597 20.1C149.164 20.1 148.767 19.98 148.407 19.74C148.054 19.5 147.771 19.1733 147.557 18.76C147.344 18.3467 147.237 17.88 147.237 17.36C147.237 16.8333 147.344 16.3667 147.557 15.96C147.777 15.5467 148.071 15.2233 148.437 14.99C148.811 14.7567 149.227 14.64 149.687 14.64C149.961 14.64 150.211 14.68 150.437 14.76C150.664 14.84 150.861 14.9533 151.027 15.1C151.201 15.24 151.341 15.4033 151.447 15.59C151.561 15.7767 151.631 15.9767 151.657 16.19L151.427 16.11V14.75H152.467V20H151.427V18.75L151.667 18.68C151.627 18.86 151.544 19.0367 151.417 19.21C151.297 19.3767 151.141 19.5267 150.947 19.66C150.761 19.7933 150.551 19.9 150.317 19.98C150.091 20.06 149.851 20.1 149.597 20.1ZM149.867 19.15C150.181 19.15 150.457 19.0733 150.697 18.92C150.937 18.7667 151.124 18.5567 151.257 18.29C151.397 18.0167 151.467 17.7067 151.467 17.36C151.467 17.02 151.397 16.7167 151.257 16.45C151.124 16.1833 150.937 15.9733 150.697 15.82C150.457 15.6667 150.181 15.59 149.867 15.59C149.561 15.59 149.287 15.6667 149.047 15.82C148.814 15.9733 148.627 16.1833 148.487 16.45C148.354 16.7167 148.287 17.02 148.287 17.36C148.287 17.7067 148.354 18.0167 148.487 18.29C148.627 18.5567 148.814 18.7667 149.047 18.92C149.287 19.0733 149.561 19.15 149.867 19.15ZM156.256 22.3C155.882 22.3 155.509 22.24 155.136 22.12C154.769 22.0067 154.472 21.8567 154.246 21.67L154.626 20.87C154.759 20.97 154.916 21.0567 155.096 21.13C155.276 21.21 155.466 21.27 155.666 21.31C155.866 21.3567 156.062 21.38 156.256 21.38C156.622 21.38 156.929 21.32 157.176 21.2C157.422 21.08 157.609 20.9033 157.736 20.67C157.862 20.4367 157.926 20.1467 157.926 19.8V18.79L158.036 18.86C158.002 19.0667 157.892 19.2667 157.706 19.46C157.526 19.6467 157.299 19.8 157.026 19.92C156.752 20.04 156.472 20.1 156.186 20.1C155.686 20.1 155.239 19.9833 154.846 19.75C154.459 19.51 154.152 19.1867 153.926 18.78C153.699 18.3667 153.586 17.8967 153.586 17.37C153.586 16.8433 153.696 16.3767 153.916 15.97C154.142 15.5567 154.449 15.2333 154.836 15C155.229 14.76 155.669 14.64 156.156 14.64C156.356 14.64 156.549 14.6667 156.736 14.72C156.922 14.7667 157.096 14.8367 157.256 14.93C157.416 15.0167 157.559 15.1133 157.686 15.22C157.812 15.3267 157.916 15.44 157.996 15.56C158.076 15.68 158.126 15.7933 158.146 15.9L157.926 15.98V14.75H158.956V19.68C158.956 20.1 158.892 20.47 158.766 20.79C158.646 21.1167 158.469 21.39 158.236 21.61C158.002 21.8367 157.719 22.0067 157.386 22.12C157.052 22.24 156.676 22.3 156.256 22.3ZM156.296 19.15C156.622 19.15 156.912 19.0733 157.166 18.92C157.419 18.7667 157.616 18.5567 157.756 18.29C157.896 18.0233 157.966 17.7167 157.966 17.37C157.966 17.0233 157.892 16.7167 157.746 16.45C157.606 16.1767 157.409 15.9633 157.156 15.81C156.909 15.6567 156.622 15.58 156.296 15.58C155.976 15.58 155.689 15.66 155.436 15.82C155.189 15.9733 154.992 16.1867 154.846 16.46C154.706 16.7267 154.636 17.03 154.636 17.37C154.636 17.71 154.706 18.0167 154.846 18.29C154.992 18.5567 155.189 18.7667 155.436 18.92C155.689 19.0733 155.976 19.15 156.296 19.15ZM162.85 20.1C162.31 20.1 161.83 19.9867 161.41 19.76C160.996 19.5267 160.67 19.21 160.43 18.81C160.196 18.41 160.08 17.95 160.08 17.43C160.08 17.0167 160.146 16.64 160.28 16.3C160.413 15.96 160.596 15.6667 160.83 15.42C161.07 15.1667 161.353 14.9733 161.68 14.84C162.013 14.7 162.373 14.63 162.76 14.63C163.1 14.63 163.416 14.6967 163.71 14.83C164.003 14.9567 164.256 15.1333 164.47 15.36C164.69 15.5867 164.856 15.8567 164.97 16.17C165.09 16.4767 165.146 16.8133 165.14 17.18L165.13 17.62H160.84L160.61 16.8H164.24L164.09 16.97V16.73C164.07 16.51 163.996 16.3133 163.87 16.14C163.743 15.9667 163.583 15.83 163.39 15.73C163.196 15.63 162.986 15.58 162.76 15.58C162.4 15.58 162.096 15.65 161.85 15.79C161.603 15.9233 161.416 16.1233 161.29 16.39C161.163 16.65 161.1 16.9733 161.1 17.36C161.1 17.7267 161.176 18.0467 161.33 18.32C161.483 18.5867 161.7 18.7933 161.98 18.94C162.26 19.0867 162.583 19.16 162.95 19.16C163.21 19.16 163.45 19.1167 163.67 19.03C163.896 18.9433 164.14 18.7867 164.4 18.56L164.92 19.29C164.76 19.45 164.563 19.59 164.33 19.71C164.103 19.83 163.86 19.9267 163.6 20C163.346 20.0667 163.096 20.1 162.85 20.1ZM166.679 20.11C166.459 20.11 166.289 20.0467 166.169 19.92C166.049 19.7867 165.989 19.6 165.989 19.36C165.989 19.14 166.052 18.96 166.179 18.82C166.306 18.68 166.472 18.61 166.679 18.61C166.899 18.61 167.069 18.6767 167.189 18.81C167.309 18.9367 167.369 19.12 167.369 19.36C167.369 19.58 167.306 19.76 167.179 19.9C167.052 20.04 166.886 20.11 166.679 20.11Z" fill="#131212"/>
<rect x="0.5" y="0.5" width="299" height="31" rx="7.5" stroke="#ED3A3A"/>
</svg>
