<svg width="300" height="32" viewBox="0 0 300 32" fill="none" xmlns="http://www.w3.org/2000/svg">
<rect x="0.5" y="0.5" width="299" height="31" rx="7.5" fill="#EBBC2E" fill-opacity="0.2"/>
<path d="M28 13V18" stroke="#EBBC2E" stroke-width="1.5" stroke-linecap="round" stroke-linejoin="round"/>
<path d="M28.0004 25.41H21.9404C18.4704 25.41 17.0204 22.93 18.7004 19.9L21.8204 14.28L24.7604 9C26.5404 5.79 29.4604 5.79 31.2404 9L34.1804 14.29L37.3004 19.91C38.9804 22.94 37.5204 25.42 34.0604 25.42H28.0004V25.41Z" stroke="#EBBC2E" stroke-width="1.5" stroke-linecap="round" stroke-linejoin="round"/>
<path d="M27.9941 21H28.0031" stroke="#EBBC2E" stroke-width="2" stroke-linecap="round" stroke-linejoin="round"/>
<path d="M48.98 20V13H50.04L52.59 17.15L52.08 17.14L54.66 13H55.66V20H54.58V17.13C54.58 16.53 54.5933 15.99 54.62 15.51C54.6533 15.03 54.7067 14.5533 54.78 14.08L54.92 14.45L52.63 17.99H51.97L49.75 14.49L49.86 14.08C49.9333 14.5267 49.9833 14.9867 50.01 15.46C50.0433 15.9267 50.06 16.4833 50.06 17.13V20H48.98ZM59.2026 20.1C58.8292 20.1 58.5026 20.0133 58.2226 19.84C57.9492 19.6667 57.7359 19.4233 57.5826 19.11C57.4359 18.7967 57.3626 18.4233 57.3626 17.99V14.75H58.3926V17.71C58.3926 18.0167 58.4392 18.2833 58.5326 18.51C58.6326 18.73 58.7726 18.9 58.9526 19.02C59.1392 19.14 59.3626 19.2 59.6226 19.2C59.8159 19.2 59.9926 19.17 60.1526 19.11C60.3126 19.0433 60.4492 18.9533 60.5626 18.84C60.6826 18.7267 60.7759 18.59 60.8426 18.43C60.9092 18.27 60.9426 18.0967 60.9426 17.91V14.75H61.9726V20H60.9426V18.9L61.1226 18.78C61.0426 19.0267 60.9059 19.25 60.7126 19.45C60.5259 19.65 60.3026 19.81 60.0426 19.93C59.7826 20.0433 59.5026 20.1 59.2026 20.1ZM65.1673 20.1C64.7273 20.1 64.3306 20.0233 63.9773 19.87C63.6239 19.7167 63.3306 19.49 63.0973 19.19L63.7973 18.59C63.9973 18.8233 64.2139 18.9933 64.4473 19.1C64.6873 19.2 64.9573 19.25 65.2573 19.25C65.3773 19.25 65.4873 19.2367 65.5873 19.21C65.6939 19.1767 65.7839 19.13 65.8573 19.07C65.9373 19.01 65.9973 18.94 66.0373 18.86C66.0773 18.7733 66.0973 18.68 66.0973 18.58C66.0973 18.4067 66.0339 18.2667 65.9073 18.16C65.8406 18.1133 65.7339 18.0633 65.5873 18.01C65.4473 17.95 65.2639 17.89 65.0373 17.83C64.6506 17.73 64.3339 17.6167 64.0873 17.49C63.8406 17.3633 63.6506 17.22 63.5173 17.06C63.4173 16.9333 63.3439 16.7967 63.2973 16.65C63.2506 16.4967 63.2273 16.33 63.2273 16.15C63.2273 15.93 63.2739 15.73 63.3673 15.55C63.4673 15.3633 63.6006 15.2033 63.7673 15.07C63.9406 14.93 64.1406 14.8233 64.3673 14.75C64.6006 14.6767 64.8473 14.64 65.1073 14.64C65.3539 14.64 65.5973 14.6733 65.8373 14.74C66.0839 14.8067 66.3106 14.9033 66.5173 15.03C66.7239 15.1567 66.8973 15.3067 67.0373 15.48L66.4473 16.13C66.3206 16.0033 66.1806 15.8933 66.0273 15.8C65.8806 15.7 65.7306 15.6233 65.5773 15.57C65.4239 15.5167 65.2839 15.49 65.1573 15.49C65.0173 15.49 64.8906 15.5033 64.7773 15.53C64.6639 15.5567 64.5673 15.5967 64.4873 15.65C64.4139 15.7033 64.3573 15.77 64.3173 15.85C64.2773 15.93 64.2573 16.02 64.2573 16.12C64.2639 16.2067 64.2839 16.29 64.3173 16.37C64.3573 16.4433 64.4106 16.5067 64.4773 16.56C64.5506 16.6133 64.6606 16.67 64.8073 16.73C64.9539 16.79 65.1406 16.8467 65.3673 16.9C65.7006 16.9867 65.9739 17.0833 66.1873 17.19C66.4073 17.29 66.5806 17.4067 66.7073 17.54C66.8406 17.6667 66.9339 17.8133 66.9873 17.98C67.0406 18.1467 67.0673 18.3333 67.0673 18.54C67.0673 18.84 66.9806 19.11 66.8073 19.35C66.6406 19.5833 66.4139 19.7667 66.1273 19.9C65.8406 20.0333 65.5206 20.1 65.1673 20.1ZM68.8524 20V13.41H69.8824V20H68.8524ZM67.7624 15.75V14.75H71.1024V15.75H67.7624ZM77.073 20.1C76.5864 20.1 76.1497 19.98 75.763 19.74C75.383 19.5 75.0797 19.1733 74.853 18.76C74.633 18.3467 74.523 17.8833 74.523 17.37C74.523 16.8567 74.633 16.3933 74.853 15.98C75.0797 15.5667 75.383 15.24 75.763 15C76.1497 14.76 76.5864 14.64 77.073 14.64C77.5397 14.64 77.963 14.7367 78.343 14.93C78.7297 15.1167 79.023 15.3733 79.223 15.7L78.653 16.4C78.5464 16.2467 78.4097 16.1067 78.243 15.98C78.0764 15.8533 77.8997 15.7533 77.713 15.68C77.5264 15.6067 77.3464 15.57 77.173 15.57C76.853 15.57 76.5664 15.65 76.313 15.81C76.0664 15.9633 75.8697 16.1767 75.723 16.45C75.5764 16.7233 75.503 17.03 75.503 17.37C75.503 17.71 75.5797 18.0167 75.733 18.29C75.8864 18.5567 76.0897 18.77 76.343 18.93C76.5964 19.09 76.8764 19.17 77.183 19.17C77.363 19.17 77.5364 19.14 77.703 19.08C77.8764 19.02 78.043 18.93 78.203 18.81C78.363 18.69 78.513 18.5433 78.653 18.37L79.223 19.07C79.0097 19.37 78.703 19.6167 78.303 19.81C77.9097 20.0033 77.4997 20.1 77.073 20.1ZM82.5546 20.1C82.0413 20.1 81.5813 19.9833 81.1746 19.75C80.7746 19.51 80.4579 19.1867 80.2246 18.78C79.9913 18.3667 79.8746 17.8967 79.8746 17.37C79.8746 16.8433 79.9913 16.3767 80.2246 15.97C80.4579 15.5567 80.7746 15.2333 81.1746 15C81.5813 14.76 82.0413 14.64 82.5546 14.64C83.0613 14.64 83.5146 14.76 83.9146 15C84.3213 15.2333 84.6413 15.5567 84.8746 15.97C85.1079 16.3767 85.2246 16.8433 85.2246 17.37C85.2246 17.8967 85.1079 18.3667 84.8746 18.78C84.6413 19.1867 84.3213 19.51 83.9146 19.75C83.5146 19.9833 83.0613 20.1 82.5546 20.1ZM82.5546 19.16C82.8679 19.16 83.1479 19.0833 83.3946 18.93C83.6413 18.77 83.8346 18.5567 83.9746 18.29C84.1146 18.0167 84.1813 17.71 84.1746 17.37C84.1813 17.0233 84.1146 16.7167 83.9746 16.45C83.8346 16.1767 83.6413 15.9633 83.3946 15.81C83.1479 15.6567 82.8679 15.58 82.5546 15.58C82.2413 15.58 81.9579 15.66 81.7046 15.82C81.4579 15.9733 81.2646 16.1867 81.1246 16.46C80.9846 16.7267 80.9179 17.03 80.9246 17.37C80.9179 17.71 80.9846 18.0167 81.1246 18.29C81.2646 18.5567 81.4579 18.77 81.7046 18.93C81.9579 19.0833 82.2413 19.16 82.5546 19.16ZM86.347 20V14.75H87.377V15.83L87.197 15.95C87.2636 15.7167 87.3936 15.5033 87.587 15.31C87.7803 15.11 88.0103 14.95 88.277 14.83C88.5436 14.7033 88.817 14.64 89.097 14.64C89.497 14.64 89.8303 14.72 90.097 14.88C90.3636 15.0333 90.5636 15.27 90.697 15.59C90.8303 15.91 90.897 16.3133 90.897 16.8V20H89.867V16.87C89.867 16.57 89.827 16.3233 89.747 16.13C89.667 15.93 89.5436 15.7867 89.377 15.7C89.2103 15.6067 89.0036 15.5667 88.757 15.58C88.557 15.58 88.3736 15.6133 88.207 15.68C88.0403 15.74 87.8936 15.8267 87.767 15.94C87.647 16.0533 87.5503 16.1867 87.477 16.34C87.4103 16.4867 87.377 16.6467 87.377 16.82V20H86.867C86.7803 20 86.6936 20 86.607 20C86.5203 20 86.4336 20 86.347 20ZM92.9442 20V13.41H93.9742V20H92.9442ZM91.8542 15.75V14.75H95.1942V15.75H91.8542ZM98.1033 20.1C97.6699 20.1 97.2733 19.98 96.9133 19.74C96.5599 19.5 96.2766 19.1733 96.0633 18.76C95.8499 18.3467 95.7433 17.88 95.7433 17.36C95.7433 16.8333 95.8499 16.3667 96.0633 15.96C96.2833 15.5467 96.5766 15.2233 96.9433 14.99C97.3166 14.7567 97.7333 14.64 98.1933 14.64C98.4666 14.64 98.7166 14.68 98.9433 14.76C99.1699 14.84 99.3666 14.9533 99.5333 15.1C99.7066 15.24 99.8466 15.4033 99.9533 15.59C100.067 15.7767 100.137 15.9767 100.163 16.19L99.9333 16.11V14.75H100.973V20H99.9333V18.75L100.173 18.68C100.133 18.86 100.05 19.0367 99.9233 19.21C99.8033 19.3767 99.6466 19.5267 99.4533 19.66C99.2666 19.7933 99.0566 19.9 98.8233 19.98C98.5966 20.06 98.3566 20.1 98.1033 20.1ZM98.3733 19.15C98.6866 19.15 98.9633 19.0733 99.2033 18.92C99.4433 18.7667 99.6299 18.5567 99.7633 18.29C99.9033 18.0167 99.9733 17.7067 99.9733 17.36C99.9733 17.02 99.9033 16.7167 99.7633 16.45C99.6299 16.1833 99.4433 15.9733 99.2033 15.82C98.9633 15.6667 98.6866 15.59 98.3733 15.59C98.0666 15.59 97.7933 15.6667 97.5533 15.82C97.3199 15.9733 97.1333 16.1833 96.9933 16.45C96.8599 16.7167 96.7933 17.02 96.7933 17.36C96.7933 17.7067 96.8599 18.0167 96.9933 18.29C97.1333 18.5567 97.3199 18.7667 97.5533 18.92C97.7933 19.0733 98.0666 19.15 98.3733 19.15ZM102.581 20V14.75H103.611V20H102.581ZM103.081 13.59C102.861 13.59 102.691 13.5333 102.571 13.42C102.451 13.3067 102.391 13.1467 102.391 12.94C102.391 12.7467 102.451 12.59 102.571 12.47C102.698 12.35 102.868 12.29 103.081 12.29C103.301 12.29 103.471 12.3467 103.591 12.46C103.711 12.5733 103.771 12.7333 103.771 12.94C103.771 13.1333 103.708 13.29 103.581 13.41C103.461 13.53 103.295 13.59 103.081 13.59ZM105.195 20V14.75H106.225V15.83L106.045 15.95C106.111 15.7167 106.241 15.5033 106.435 15.31C106.628 15.11 106.858 14.95 107.125 14.83C107.391 14.7033 107.665 14.64 107.945 14.64C108.345 14.64 108.678 14.72 108.945 14.88C109.211 15.0333 109.411 15.27 109.545 15.59C109.678 15.91 109.745 16.3133 109.745 16.8V20H108.715V16.87C108.715 16.57 108.675 16.3233 108.595 16.13C108.515 15.93 108.391 15.7867 108.225 15.7C108.058 15.6067 107.851 15.5667 107.605 15.58C107.405 15.58 107.221 15.6133 107.055 15.68C106.888 15.74 106.741 15.8267 106.615 15.94C106.495 16.0533 106.398 16.1867 106.325 16.34C106.258 16.4867 106.225 16.6467 106.225 16.82V20H105.715C105.628 20 105.541 20 105.455 20C105.368 20 105.281 20 105.195 20ZM115.965 20.1C115.531 20.1 115.135 19.98 114.775 19.74C114.421 19.5 114.138 19.1733 113.925 18.76C113.711 18.3467 113.605 17.88 113.605 17.36C113.605 16.8333 113.711 16.3667 113.925 15.96C114.145 15.5467 114.438 15.2233 114.805 14.99C115.178 14.7567 115.595 14.64 116.055 14.64C116.328 14.64 116.578 14.68 116.805 14.76C117.031 14.84 117.228 14.9533 117.395 15.1C117.568 15.24 117.708 15.4033 117.815 15.59C117.928 15.7767 117.998 15.9767 118.025 16.19L117.795 16.11V14.75H118.835V20H117.795V18.75L118.035 18.68C117.995 18.86 117.911 19.0367 117.785 19.21C117.665 19.3767 117.508 19.5267 117.315 19.66C117.128 19.7933 116.918 19.9 116.685 19.98C116.458 20.06 116.218 20.1 115.965 20.1ZM116.235 19.15C116.548 19.15 116.825 19.0733 117.065 18.92C117.305 18.7667 117.491 18.5567 117.625 18.29C117.765 18.0167 117.835 17.7067 117.835 17.36C117.835 17.02 117.765 16.7167 117.625 16.45C117.491 16.1833 117.305 15.9733 117.065 15.82C116.825 15.6667 116.548 15.59 116.235 15.59C115.928 15.59 115.655 15.6667 115.415 15.82C115.181 15.9733 114.995 16.1833 114.855 16.45C114.721 16.7167 114.655 17.02 114.655 17.36C114.655 17.7067 114.721 18.0167 114.855 18.29C114.995 18.5567 115.181 18.7667 115.415 18.92C115.655 19.0733 115.928 19.15 116.235 19.15ZM120.923 20V13.41H121.953V20H120.923ZM119.833 15.75V14.75H123.173V15.75H119.833ZM126.933 20V12.6H127.963V20H126.933ZM131.775 20.1C131.235 20.1 130.755 19.9867 130.335 19.76C129.922 19.5267 129.595 19.21 129.355 18.81C129.122 18.41 129.005 17.95 129.005 17.43C129.005 17.0167 129.072 16.64 129.205 16.3C129.339 15.96 129.522 15.6667 129.755 15.42C129.995 15.1667 130.279 14.9733 130.605 14.84C130.939 14.7 131.299 14.63 131.685 14.63C132.025 14.63 132.342 14.6967 132.635 14.83C132.929 14.9567 133.182 15.1333 133.395 15.36C133.615 15.5867 133.782 15.8567 133.895 16.17C134.015 16.4767 134.072 16.8133 134.065 17.18L134.055 17.62H129.765L129.535 16.8H133.165L133.015 16.97V16.73C132.995 16.51 132.922 16.3133 132.795 16.14C132.669 15.9667 132.509 15.83 132.315 15.73C132.122 15.63 131.912 15.58 131.685 15.58C131.325 15.58 131.022 15.65 130.775 15.79C130.529 15.9233 130.342 16.1233 130.215 16.39C130.089 16.65 130.025 16.9733 130.025 17.36C130.025 17.7267 130.102 18.0467 130.255 18.32C130.409 18.5867 130.625 18.7933 130.905 18.94C131.185 19.0867 131.509 19.16 131.875 19.16C132.135 19.16 132.375 19.1167 132.595 19.03C132.822 18.9433 133.065 18.7867 133.325 18.56L133.845 19.29C133.685 19.45 133.489 19.59 133.255 19.71C133.029 19.83 132.785 19.9267 132.525 20C132.272 20.0667 132.022 20.1 131.775 20.1ZM137.205 20.1C136.772 20.1 136.375 19.98 136.015 19.74C135.662 19.5 135.378 19.1733 135.165 18.76C134.952 18.3467 134.845 17.88 134.845 17.36C134.845 16.8333 134.952 16.3667 135.165 15.96C135.385 15.5467 135.678 15.2233 136.045 14.99C136.418 14.7567 136.835 14.64 137.295 14.64C137.568 14.64 137.818 14.68 138.045 14.76C138.272 14.84 138.468 14.9533 138.635 15.1C138.808 15.24 138.948 15.4033 139.055 15.59C139.168 15.7767 139.238 15.9767 139.265 16.19L139.035 16.11V14.75H140.075V20H139.035V18.75L139.275 18.68C139.235 18.86 139.152 19.0367 139.025 19.21C138.905 19.3767 138.748 19.5267 138.555 19.66C138.368 19.7933 138.158 19.9 137.925 19.98C137.698 20.06 137.458 20.1 137.205 20.1ZM137.475 19.15C137.788 19.15 138.065 19.0733 138.305 18.92C138.545 18.7667 138.732 18.5567 138.865 18.29C139.005 18.0167 139.075 17.7067 139.075 17.36C139.075 17.02 139.005 16.7167 138.865 16.45C138.732 16.1833 138.545 15.9733 138.305 15.82C138.065 15.6667 137.788 15.59 137.475 15.59C137.168 15.59 136.895 15.6667 136.655 15.82C136.422 15.9733 136.235 16.1833 136.095 16.45C135.962 16.7167 135.895 17.02 135.895 17.36C135.895 17.7067 135.962 18.0167 136.095 18.29C136.235 18.5567 136.422 18.7667 136.655 18.92C136.895 19.0733 137.168 19.15 137.475 19.15ZM143.263 20.1C142.823 20.1 142.426 20.0233 142.073 19.87C141.72 19.7167 141.426 19.49 141.193 19.19L141.893 18.59C142.093 18.8233 142.31 18.9933 142.543 19.1C142.783 19.2 143.053 19.25 143.353 19.25C143.473 19.25 143.583 19.2367 143.683 19.21C143.79 19.1767 143.88 19.13 143.953 19.07C144.033 19.01 144.093 18.94 144.133 18.86C144.173 18.7733 144.193 18.68 144.193 18.58C144.193 18.4067 144.13 18.2667 144.003 18.16C143.936 18.1133 143.83 18.0633 143.683 18.01C143.543 17.95 143.36 17.89 143.133 17.83C142.746 17.73 142.43 17.6167 142.183 17.49C141.936 17.3633 141.746 17.22 141.613 17.06C141.513 16.9333 141.44 16.7967 141.393 16.65C141.346 16.4967 141.323 16.33 141.323 16.15C141.323 15.93 141.37 15.73 141.463 15.55C141.563 15.3633 141.696 15.2033 141.863 15.07C142.036 14.93 142.236 14.8233 142.463 14.75C142.696 14.6767 142.943 14.64 143.203 14.64C143.45 14.64 143.693 14.6733 143.933 14.74C144.18 14.8067 144.406 14.9033 144.613 15.03C144.82 15.1567 144.993 15.3067 145.133 15.48L144.543 16.13C144.416 16.0033 144.276 15.8933 144.123 15.8C143.976 15.7 143.826 15.6233 143.673 15.57C143.52 15.5167 143.38 15.49 143.253 15.49C143.113 15.49 142.986 15.5033 142.873 15.53C142.76 15.5567 142.663 15.5967 142.583 15.65C142.51 15.7033 142.453 15.77 142.413 15.85C142.373 15.93 142.353 16.02 142.353 16.12C142.36 16.2067 142.38 16.29 142.413 16.37C142.453 16.4433 142.506 16.5067 142.573 16.56C142.646 16.6133 142.756 16.67 142.903 16.73C143.05 16.79 143.236 16.8467 143.463 16.9C143.796 16.9867 144.07 17.0833 144.283 17.19C144.503 17.29 144.676 17.4067 144.803 17.54C144.936 17.6667 145.03 17.8133 145.083 17.98C145.136 18.1467 145.163 18.3333 145.163 18.54C145.163 18.84 145.076 19.11 144.903 19.35C144.736 19.5833 144.51 19.7667 144.223 19.9C143.936 20.0333 143.616 20.1 143.263 20.1ZM146.948 20V13.41H147.978V20H146.948ZM145.858 15.75V14.75H149.198V15.75H145.858ZM155.109 20.03C154.675 20.03 154.279 19.94 153.919 19.76C153.565 19.5733 153.282 19.3267 153.069 19.02C152.855 18.7133 152.749 18.3733 152.749 18C152.749 17.7933 152.775 17.6 152.829 17.42C152.889 17.2333 152.975 17.0633 153.089 16.91C153.209 16.7567 153.352 16.6167 153.519 16.49C153.685 16.3633 153.879 16.25 154.099 16.15L154.039 16.36C153.865 16.2933 153.709 16.2133 153.569 16.12C153.435 16.02 153.319 15.9067 153.219 15.78C153.119 15.6533 153.042 15.5167 152.989 15.37C152.942 15.2233 152.919 15.07 152.919 14.91C152.919 14.5567 153.015 14.2367 153.209 13.95C153.409 13.6633 153.672 13.4333 153.999 13.26C154.332 13.0867 154.702 13 155.109 13C155.515 13 155.882 13.0867 156.209 13.26C156.542 13.4333 156.805 13.6633 156.999 13.95C157.199 14.2367 157.299 14.5567 157.299 14.91C157.299 15.07 157.272 15.2233 157.219 15.37C157.172 15.5167 157.102 15.65 157.009 15.77C156.915 15.89 156.795 16 156.649 16.1C156.509 16.2 156.349 16.2867 156.169 16.36L156.139 16.19C156.339 16.27 156.519 16.3733 156.679 16.5C156.845 16.6267 156.989 16.77 157.109 16.93C157.229 17.09 157.319 17.26 157.379 17.44C157.445 17.62 157.479 17.8067 157.479 18C157.479 18.38 157.372 18.7233 157.159 19.03C156.945 19.3367 156.659 19.58 156.299 19.76C155.945 19.94 155.549 20.03 155.109 20.03ZM155.109 19.03C155.355 19.03 155.575 18.9833 155.769 18.89C155.969 18.7967 156.125 18.67 156.239 18.51C156.352 18.35 156.409 18.1667 156.409 17.96C156.409 17.74 156.352 17.5467 156.239 17.38C156.125 17.2067 155.969 17.07 155.769 16.97C155.575 16.87 155.355 16.82 155.109 16.82C154.862 16.82 154.642 16.87 154.449 16.97C154.255 17.07 154.102 17.2067 153.989 17.38C153.875 17.5467 153.819 17.74 153.819 17.96C153.819 18.16 153.875 18.34 153.989 18.5C154.102 18.66 154.255 18.79 154.449 18.89C154.642 18.9833 154.862 19.03 155.109 19.03ZM155.109 15.86C155.322 15.86 155.512 15.82 155.679 15.74C155.852 15.66 155.985 15.5533 156.079 15.42C156.179 15.28 156.229 15.12 156.229 14.94C156.229 14.76 156.179 14.6 156.079 14.46C155.985 14.32 155.852 14.21 155.679 14.13C155.512 14.0433 155.322 14 155.109 14C154.895 14 154.702 14.0433 154.529 14.13C154.362 14.21 154.229 14.32 154.129 14.46C154.035 14.6 153.989 14.76 153.989 14.94C153.989 15.12 154.035 15.28 154.129 15.42C154.229 15.5533 154.362 15.66 154.529 15.74C154.702 15.82 154.895 15.86 155.109 15.86ZM163.763 20.1C163.276 20.1 162.839 19.98 162.453 19.74C162.073 19.5 161.769 19.1733 161.543 18.76C161.323 18.3467 161.213 17.8833 161.213 17.37C161.213 16.8567 161.323 16.3933 161.543 15.98C161.769 15.5667 162.073 15.24 162.453 15C162.839 14.76 163.276 14.64 163.763 14.64C164.229 14.64 164.653 14.7367 165.033 14.93C165.419 15.1167 165.713 15.3733 165.913 15.7L165.343 16.4C165.236 16.2467 165.099 16.1067 164.933 15.98C164.766 15.8533 164.589 15.7533 164.403 15.68C164.216 15.6067 164.036 15.57 163.863 15.57C163.543 15.57 163.256 15.65 163.003 15.81C162.756 15.9633 162.559 16.1767 162.413 16.45C162.266 16.7233 162.193 17.03 162.193 17.37C162.193 17.71 162.269 18.0167 162.423 18.29C162.576 18.5567 162.779 18.77 163.033 18.93C163.286 19.09 163.566 19.17 163.873 19.17C164.053 19.17 164.226 19.14 164.393 19.08C164.566 19.02 164.733 18.93 164.893 18.81C165.053 18.69 165.203 18.5433 165.343 18.37L165.913 19.07C165.699 19.37 165.393 19.6167 164.993 19.81C164.599 20.0033 164.189 20.1 163.763 20.1ZM166.884 20V12.6H167.914V15.83L167.734 15.95C167.801 15.7167 167.931 15.5033 168.124 15.31C168.317 15.11 168.547 14.95 168.814 14.83C169.081 14.7033 169.354 14.64 169.634 14.64C170.034 14.64 170.367 14.72 170.634 14.88C170.901 15.0333 171.101 15.27 171.234 15.59C171.367 15.91 171.434 16.3133 171.434 16.8V20H170.404V16.87C170.404 16.57 170.364 16.3233 170.284 16.13C170.204 15.93 170.081 15.7867 169.914 15.7C169.747 15.6067 169.541 15.5667 169.294 15.58C169.094 15.58 168.911 15.6133 168.744 15.68C168.577 15.74 168.431 15.8267 168.304 15.94C168.184 16.0533 168.087 16.1867 168.014 16.34C167.947 16.4867 167.914 16.6467 167.914 16.82V20H167.404C167.317 20 167.231 20 167.144 20C167.057 20 166.971 20 166.884 20ZM174.851 20.1C174.418 20.1 174.021 19.98 173.661 19.74C173.308 19.5 173.025 19.1733 172.811 18.76C172.598 18.3467 172.491 17.88 172.491 17.36C172.491 16.8333 172.598 16.3667 172.811 15.96C173.031 15.5467 173.325 15.2233 173.691 14.99C174.065 14.7567 174.481 14.64 174.941 14.64C175.215 14.64 175.465 14.68 175.691 14.76C175.918 14.84 176.115 14.9533 176.281 15.1C176.455 15.24 176.595 15.4033 176.701 15.59C176.815 15.7767 176.885 15.9767 176.911 16.19L176.681 16.11V14.75H177.721V20H176.681V18.75L176.921 18.68C176.881 18.86 176.798 19.0367 176.671 19.21C176.551 19.3767 176.395 19.5267 176.201 19.66C176.015 19.7933 175.805 19.9 175.571 19.98C175.345 20.06 175.105 20.1 174.851 20.1ZM175.121 19.15C175.435 19.15 175.711 19.0733 175.951 18.92C176.191 18.7667 176.378 18.5567 176.511 18.29C176.651 18.0167 176.721 17.7067 176.721 17.36C176.721 17.02 176.651 16.7167 176.511 16.45C176.378 16.1833 176.191 15.9733 175.951 15.82C175.711 15.6667 175.435 15.59 175.121 15.59C174.815 15.59 174.541 15.6667 174.301 15.82C174.068 15.9733 173.881 16.1833 173.741 16.45C173.608 16.7167 173.541 17.02 173.541 17.36C173.541 17.7067 173.608 18.0167 173.741 18.29C173.881 18.5567 174.068 18.7667 174.301 18.92C174.541 19.0733 174.815 19.15 175.121 19.15ZM179.159 20V14.75H180.199V16.4L180.099 16C180.173 15.7467 180.296 15.5167 180.469 15.31C180.649 15.1033 180.853 14.94 181.079 14.82C181.313 14.7 181.553 14.64 181.799 14.64C181.913 14.64 182.019 14.65 182.119 14.67C182.226 14.69 182.309 14.7133 182.369 14.74L182.099 15.86C182.019 15.8267 181.929 15.8 181.829 15.78C181.736 15.7533 181.643 15.74 181.549 15.74C181.369 15.74 181.196 15.7767 181.029 15.85C180.869 15.9167 180.726 16.0133 180.599 16.14C180.479 16.26 180.383 16.4033 180.309 16.57C180.236 16.73 180.199 16.9067 180.199 17.1V20H179.159ZM184.988 20.1C184.555 20.1 184.158 19.98 183.798 19.74C183.445 19.5 183.161 19.1733 182.948 18.76C182.735 18.3467 182.628 17.88 182.628 17.36C182.628 16.8333 182.735 16.3667 182.948 15.96C183.168 15.5467 183.461 15.2233 183.828 14.99C184.201 14.7567 184.618 14.64 185.078 14.64C185.351 14.64 185.601 14.68 185.828 14.76C186.055 14.84 186.251 14.9533 186.418 15.1C186.591 15.24 186.731 15.4033 186.838 15.59C186.951 15.7767 187.021 15.9767 187.048 16.19L186.818 16.11V14.75H187.858V20H186.818V18.75L187.058 18.68C187.018 18.86 186.935 19.0367 186.808 19.21C186.688 19.3767 186.531 19.5267 186.338 19.66C186.151 19.7933 185.941 19.9 185.708 19.98C185.481 20.06 185.241 20.1 184.988 20.1ZM185.258 19.15C185.571 19.15 185.848 19.0733 186.088 18.92C186.328 18.7667 186.515 18.5567 186.648 18.29C186.788 18.0167 186.858 17.7067 186.858 17.36C186.858 17.02 186.788 16.7167 186.648 16.45C186.515 16.1833 186.328 15.9733 186.088 15.82C185.848 15.6667 185.571 15.59 185.258 15.59C184.951 15.59 184.678 15.6667 184.438 15.82C184.205 15.9733 184.018 16.1833 183.878 16.45C183.745 16.7167 183.678 17.02 183.678 17.36C183.678 17.7067 183.745 18.0167 183.878 18.29C184.018 18.5567 184.205 18.7667 184.438 18.92C184.678 19.0733 184.951 19.15 185.258 19.15ZM191.526 20.1C191.04 20.1 190.603 19.98 190.216 19.74C189.836 19.5 189.533 19.1733 189.306 18.76C189.086 18.3467 188.976 17.8833 188.976 17.37C188.976 16.8567 189.086 16.3933 189.306 15.98C189.533 15.5667 189.836 15.24 190.216 15C190.603 14.76 191.04 14.64 191.526 14.64C191.993 14.64 192.416 14.7367 192.796 14.93C193.183 15.1167 193.476 15.3733 193.676 15.7L193.106 16.4C193 16.2467 192.863 16.1067 192.696 15.98C192.53 15.8533 192.353 15.7533 192.166 15.68C191.98 15.6067 191.8 15.57 191.626 15.57C191.306 15.57 191.02 15.65 190.766 15.81C190.52 15.9633 190.323 16.1767 190.176 16.45C190.03 16.7233 189.956 17.03 189.956 17.37C189.956 17.71 190.033 18.0167 190.186 18.29C190.34 18.5567 190.543 18.77 190.796 18.93C191.05 19.09 191.33 19.17 191.636 19.17C191.816 19.17 191.99 19.14 192.156 19.08C192.33 19.02 192.496 18.93 192.656 18.81C192.816 18.69 192.966 18.5433 193.106 18.37L193.676 19.07C193.463 19.37 193.156 19.6167 192.756 19.81C192.363 20.0033 191.953 20.1 191.526 20.1ZM195.298 20V13.41H196.328V20H195.298ZM194.208 15.75V14.75H197.548V15.75H194.208ZM200.887 20.1C200.347 20.1 199.867 19.9867 199.447 19.76C199.033 19.5267 198.707 19.21 198.467 18.81C198.233 18.41 198.117 17.95 198.117 17.43C198.117 17.0167 198.183 16.64 198.317 16.3C198.45 15.96 198.633 15.6667 198.867 15.42C199.107 15.1667 199.39 14.9733 199.717 14.84C200.05 14.7 200.41 14.63 200.797 14.63C201.137 14.63 201.453 14.6967 201.747 14.83C202.04 14.9567 202.293 15.1333 202.507 15.36C202.727 15.5867 202.893 15.8567 203.007 16.17C203.127 16.4767 203.183 16.8133 203.177 17.18L203.167 17.62H198.877L198.647 16.8H202.277L202.127 16.97V16.73C202.107 16.51 202.033 16.3133 201.907 16.14C201.78 15.9667 201.62 15.83 201.427 15.73C201.233 15.63 201.023 15.58 200.797 15.58C200.437 15.58 200.133 15.65 199.887 15.79C199.64 15.9233 199.453 16.1233 199.327 16.39C199.2 16.65 199.137 16.9733 199.137 17.36C199.137 17.7267 199.213 18.0467 199.367 18.32C199.52 18.5867 199.737 18.7933 200.017 18.94C200.297 19.0867 200.62 19.16 200.987 19.16C201.247 19.16 201.487 19.1167 201.707 19.03C201.933 18.9433 202.177 18.7867 202.437 18.56L202.957 19.29C202.797 19.45 202.6 19.59 202.367 19.71C202.14 19.83 201.897 19.9267 201.637 20C201.383 20.0667 201.133 20.1 200.887 20.1ZM204.296 20V14.75H205.336V16.4L205.236 16C205.31 15.7467 205.433 15.5167 205.606 15.31C205.786 15.1033 205.99 14.94 206.216 14.82C206.45 14.7 206.69 14.64 206.936 14.64C207.05 14.64 207.156 14.65 207.256 14.67C207.363 14.69 207.446 14.7133 207.506 14.74L207.236 15.86C207.156 15.8267 207.066 15.8 206.966 15.78C206.873 15.7533 206.78 15.74 206.686 15.74C206.506 15.74 206.333 15.7767 206.166 15.85C206.006 15.9167 205.863 16.0133 205.736 16.14C205.616 16.26 205.52 16.4033 205.446 16.57C205.373 16.73 205.336 16.9067 205.336 17.1V20H204.296ZM210.079 20.1C209.639 20.1 209.243 20.0233 208.889 19.87C208.536 19.7167 208.243 19.49 208.009 19.19L208.709 18.59C208.909 18.8233 209.126 18.9933 209.359 19.1C209.599 19.2 209.869 19.25 210.169 19.25C210.289 19.25 210.399 19.2367 210.499 19.21C210.606 19.1767 210.696 19.13 210.769 19.07C210.849 19.01 210.909 18.94 210.949 18.86C210.989 18.7733 211.009 18.68 211.009 18.58C211.009 18.4067 210.946 18.2667 210.819 18.16C210.753 18.1133 210.646 18.0633 210.499 18.01C210.359 17.95 210.176 17.89 209.949 17.83C209.563 17.73 209.246 17.6167 208.999 17.49C208.753 17.3633 208.563 17.22 208.429 17.06C208.329 16.9333 208.256 16.7967 208.209 16.65C208.163 16.4967 208.139 16.33 208.139 16.15C208.139 15.93 208.186 15.73 208.279 15.55C208.379 15.3633 208.513 15.2033 208.679 15.07C208.853 14.93 209.053 14.8233 209.279 14.75C209.513 14.6767 209.759 14.64 210.019 14.64C210.266 14.64 210.509 14.6733 210.749 14.74C210.996 14.8067 211.223 14.9033 211.429 15.03C211.636 15.1567 211.809 15.3067 211.949 15.48L211.359 16.13C211.233 16.0033 211.093 15.8933 210.939 15.8C210.793 15.7 210.643 15.6233 210.489 15.57C210.336 15.5167 210.196 15.49 210.069 15.49C209.929 15.49 209.803 15.5033 209.689 15.53C209.576 15.5567 209.479 15.5967 209.399 15.65C209.326 15.7033 209.269 15.77 209.229 15.85C209.189 15.93 209.169 16.02 209.169 16.12C209.176 16.2067 209.196 16.29 209.229 16.37C209.269 16.4433 209.323 16.5067 209.389 16.56C209.463 16.6133 209.573 16.67 209.719 16.73C209.866 16.79 210.053 16.8467 210.279 16.9C210.613 16.9867 210.886 17.0833 211.099 17.19C211.319 17.29 211.493 17.4067 211.619 17.54C211.753 17.6667 211.846 17.8133 211.899 17.98C211.953 18.1467 211.979 18.3333 211.979 18.54C211.979 18.84 211.893 19.11 211.719 19.35C211.553 19.5833 211.326 19.7667 211.039 19.9C210.753 20.0333 210.433 20.1 210.079 20.1ZM217.937 20.1C217.504 20.1 217.107 19.98 216.747 19.74C216.394 19.5 216.111 19.1733 215.897 18.76C215.684 18.3467 215.577 17.88 215.577 17.36C215.577 16.8333 215.684 16.3667 215.897 15.96C216.117 15.5467 216.411 15.2233 216.777 14.99C217.151 14.7567 217.567 14.64 218.027 14.64C218.301 14.64 218.551 14.68 218.777 14.76C219.004 14.84 219.201 14.9533 219.367 15.1C219.541 15.24 219.681 15.4033 219.787 15.59C219.901 15.7767 219.971 15.9767 219.997 16.19L219.767 16.11V14.75H220.807V20H219.767V18.75L220.007 18.68C219.967 18.86 219.884 19.0367 219.757 19.21C219.637 19.3767 219.481 19.5267 219.287 19.66C219.101 19.7933 218.891 19.9 218.657 19.98C218.431 20.06 218.191 20.1 217.937 20.1ZM218.207 19.15C218.521 19.15 218.797 19.0733 219.037 18.92C219.277 18.7667 219.464 18.5567 219.597 18.29C219.737 18.0167 219.807 17.7067 219.807 17.36C219.807 17.02 219.737 16.7167 219.597 16.45C219.464 16.1833 219.277 15.9733 219.037 15.82C218.797 15.6667 218.521 15.59 218.207 15.59C217.901 15.59 217.627 15.6667 217.387 15.82C217.154 15.9733 216.967 16.1833 216.827 16.45C216.694 16.7167 216.627 17.02 216.627 17.36C216.627 17.7067 216.694 18.0167 216.827 18.29C216.967 18.5567 217.154 18.7667 217.387 18.92C217.627 19.0733 217.901 19.15 218.207 19.15ZM222.245 20V14.75H223.275V15.83L223.095 15.95C223.162 15.7167 223.292 15.5033 223.485 15.31C223.679 15.11 223.909 14.95 224.175 14.83C224.442 14.7033 224.715 14.64 224.995 14.64C225.395 14.64 225.729 14.72 225.995 14.88C226.262 15.0333 226.462 15.27 226.595 15.59C226.729 15.91 226.795 16.3133 226.795 16.8V20H225.765V16.87C225.765 16.57 225.725 16.3233 225.645 16.13C225.565 15.93 225.442 15.7867 225.275 15.7C225.109 15.6067 224.902 15.5667 224.655 15.58C224.455 15.58 224.272 15.6133 224.105 15.68C223.939 15.74 223.792 15.8267 223.665 15.94C223.545 16.0533 223.449 16.1867 223.375 16.34C223.309 16.4867 223.275 16.6467 223.275 16.82V20H222.765C222.679 20 222.592 20 222.505 20C222.419 20 222.332 20 222.245 20ZM230.383 20.1C229.903 20.1 229.473 19.9833 229.093 19.75C228.719 19.51 228.423 19.1867 228.203 18.78C227.983 18.3667 227.873 17.8967 227.873 17.37C227.873 16.8433 227.979 16.3767 228.193 15.97C228.413 15.5567 228.709 15.2333 229.083 15C229.456 14.76 229.879 14.64 230.353 14.64C230.613 14.64 230.863 14.6833 231.103 14.77C231.349 14.85 231.569 14.9633 231.763 15.11C231.956 15.25 232.106 15.4067 232.213 15.58C232.326 15.7467 232.383 15.9167 232.383 16.09L232.083 16.11V12.6H233.113V20H232.083V18.75H232.283C232.283 18.91 232.229 19.07 232.123 19.23C232.016 19.3833 231.873 19.5267 231.693 19.66C231.519 19.7933 231.316 19.9 231.083 19.98C230.856 20.06 230.623 20.1 230.383 20.1ZM230.523 19.21C230.836 19.21 231.113 19.13 231.353 18.97C231.593 18.81 231.779 18.5933 231.913 18.32C232.053 18.04 232.123 17.7233 232.123 17.37C232.123 17.0167 232.053 16.7033 231.913 16.43C231.779 16.15 231.593 15.93 231.353 15.77C231.113 15.61 230.836 15.53 230.523 15.53C230.209 15.53 229.933 15.61 229.693 15.77C229.453 15.93 229.263 16.15 229.123 16.43C228.989 16.7033 228.923 17.0167 228.923 17.37C228.923 17.7233 228.989 18.04 229.123 18.32C229.263 18.5933 229.453 18.81 229.693 18.97C229.933 19.13 230.209 19.21 230.523 19.21ZM239.353 20.1C238.92 20.1 238.523 19.98 238.163 19.74C237.81 19.5 237.527 19.1733 237.313 18.76C237.1 18.3467 236.993 17.88 236.993 17.36C236.993 16.8333 237.1 16.3667 237.313 15.96C237.533 15.5467 237.827 15.2233 238.193 14.99C238.567 14.7567 238.983 14.64 239.443 14.64C239.717 14.64 239.967 14.68 240.193 14.76C240.42 14.84 240.617 14.9533 240.783 15.1C240.957 15.24 241.097 15.4033 241.203 15.59C241.317 15.7767 241.387 15.9767 241.413 16.19L241.183 16.11V14.75H242.223V20H241.183V18.75L241.423 18.68C241.383 18.86 241.3 19.0367 241.173 19.21C241.053 19.3767 240.897 19.5267 240.703 19.66C240.517 19.7933 240.307 19.9 240.073 19.98C239.847 20.06 239.607 20.1 239.353 20.1ZM239.623 19.15C239.937 19.15 240.213 19.0733 240.453 18.92C240.693 18.7667 240.88 18.5567 241.013 18.29C241.153 18.0167 241.223 17.7067 241.223 17.36C241.223 17.02 241.153 16.7167 241.013 16.45C240.88 16.1833 240.693 15.9733 240.453 15.82C240.213 15.6667 239.937 15.59 239.623 15.59C239.317 15.59 239.043 15.6667 238.803 15.82C238.57 15.9733 238.383 16.1833 238.243 16.45C238.11 16.7167 238.043 17.02 238.043 17.36C238.043 17.7067 238.11 18.0167 238.243 18.29C238.383 18.5567 238.57 18.7667 238.803 18.92C239.043 19.0733 239.317 19.15 239.623 19.15ZM243.681 20V12.6H244.711V20H243.681ZM246.191 20V12.6H247.221V20H246.191ZM253.844 20.1C253.33 20.1 252.87 19.9833 252.464 19.75C252.064 19.51 251.747 19.1867 251.514 18.78C251.28 18.3667 251.164 17.8967 251.164 17.37C251.164 16.8433 251.28 16.3767 251.514 15.97C251.747 15.5567 252.064 15.2333 252.464 15C252.87 14.76 253.33 14.64 253.844 14.64C254.35 14.64 254.804 14.76 255.204 15C255.61 15.2333 255.93 15.5567 256.164 15.97C256.397 16.3767 256.514 16.8433 256.514 17.37C256.514 17.8967 256.397 18.3667 256.164 18.78C255.93 19.1867 255.61 19.51 255.204 19.75C254.804 19.9833 254.35 20.1 253.844 20.1ZM253.844 19.16C254.157 19.16 254.437 19.0833 254.684 18.93C254.93 18.77 255.124 18.5567 255.264 18.29C255.404 18.0167 255.47 17.71 255.464 17.37C255.47 17.0233 255.404 16.7167 255.264 16.45C255.124 16.1767 254.93 15.9633 254.684 15.81C254.437 15.6567 254.157 15.58 253.844 15.58C253.53 15.58 253.247 15.66 252.994 15.82C252.747 15.9733 252.554 16.1867 252.414 16.46C252.274 16.7267 252.207 17.03 252.214 17.37C252.207 17.71 252.274 18.0167 252.414 18.29C252.554 18.5567 252.747 18.77 252.994 18.93C253.247 19.0833 253.53 19.16 253.844 19.16ZM258.011 20V14.16C258.011 13.86 258.077 13.5933 258.211 13.36C258.344 13.1267 258.527 12.9433 258.761 12.81C258.994 12.6767 259.264 12.61 259.571 12.61C259.784 12.61 259.984 12.65 260.171 12.73C260.357 12.81 260.507 12.9167 260.621 13.05L260.271 13.84C260.184 13.76 260.087 13.6967 259.981 13.65C259.881 13.5967 259.784 13.57 259.691 13.57C259.551 13.57 259.431 13.5933 259.331 13.64C259.237 13.68 259.167 13.7467 259.121 13.84C259.074 13.9267 259.051 14.0333 259.051 14.16V20H258.531C258.444 20 258.357 20 258.271 20C258.184 20 258.097 20 258.011 20ZM257.171 15.79V14.84H260.291V15.79H257.171ZM264.819 20V13.41H265.849V20H264.819ZM263.729 15.75V14.75H267.069V15.75H263.729ZM268.007 20V12.6H269.037V15.83L268.857 15.95C268.924 15.7167 269.054 15.5033 269.247 15.31C269.44 15.11 269.67 14.95 269.937 14.83C270.204 14.7033 270.477 14.64 270.757 14.64C271.157 14.64 271.49 14.72 271.757 14.88C272.024 15.0333 272.224 15.27 272.357 15.59C272.49 15.91 272.557 16.3133 272.557 16.8V20H271.527V16.87C271.527 16.57 271.487 16.3233 271.407 16.13C271.327 15.93 271.204 15.7867 271.037 15.7C270.87 15.6067 270.664 15.5667 270.417 15.58C270.217 15.58 270.034 15.6133 269.867 15.68C269.7 15.74 269.554 15.8267 269.427 15.94C269.307 16.0533 269.21 16.1867 269.137 16.34C269.07 16.4867 269.037 16.6467 269.037 16.82V20H268.527C268.44 20 268.354 20 268.267 20C268.18 20 268.094 20 268.007 20ZM276.404 20.1C275.864 20.1 275.384 19.9867 274.964 19.76C274.551 19.5267 274.224 19.21 273.984 18.81C273.751 18.41 273.634 17.95 273.634 17.43C273.634 17.0167 273.701 16.64 273.834 16.3C273.968 15.96 274.151 15.6667 274.384 15.42C274.624 15.1667 274.908 14.9733 275.234 14.84C275.568 14.7 275.928 14.63 276.314 14.63C276.654 14.63 276.971 14.6967 277.264 14.83C277.558 14.9567 277.811 15.1333 278.024 15.36C278.244 15.5867 278.411 15.8567 278.524 16.17C278.644 16.4767 278.701 16.8133 278.694 17.18L278.684 17.62H274.394L274.164 16.8H277.794L277.644 16.97V16.73C277.624 16.51 277.551 16.3133 277.424 16.14C277.298 15.9667 277.138 15.83 276.944 15.73C276.751 15.63 276.541 15.58 276.314 15.58C275.954 15.58 275.651 15.65 275.404 15.79C275.158 15.9233 274.971 16.1233 274.844 16.39C274.718 16.65 274.654 16.9733 274.654 17.36C274.654 17.7267 274.731 18.0467 274.884 18.32C275.038 18.5867 275.254 18.7933 275.534 18.94C275.814 19.0867 276.138 19.16 276.504 19.16C276.764 19.16 277.004 19.1167 277.224 19.03C277.451 18.9433 277.694 18.7867 277.954 18.56L278.474 19.29C278.314 19.45 278.118 19.59 277.884 19.71C277.658 19.83 277.414 19.9267 277.154 20C276.901 20.0667 276.651 20.1 276.404 20.1ZM281.564 20.1C281.124 20.1 280.727 20.0233 280.374 19.87C280.02 19.7167 279.727 19.49 279.494 19.19L280.194 18.59C280.394 18.8233 280.61 18.9933 280.844 19.1C281.084 19.2 281.354 19.25 281.654 19.25C281.774 19.25 281.884 19.2367 281.984 19.21C282.09 19.1767 282.18 19.13 282.254 19.07C282.334 19.01 282.394 18.94 282.434 18.86C282.474 18.7733 282.494 18.68 282.494 18.58C282.494 18.4067 282.43 18.2667 282.304 18.16C282.237 18.1133 282.13 18.0633 281.984 18.01C281.844 17.95 281.66 17.89 281.434 17.83C281.047 17.73 280.73 17.6167 280.484 17.49C280.237 17.3633 280.047 17.22 279.914 17.06C279.814 16.9333 279.74 16.7967 279.694 16.65C279.647 16.4967 279.624 16.33 279.624 16.15C279.624 15.93 279.67 15.73 279.764 15.55C279.864 15.3633 279.997 15.2033 280.164 15.07C280.337 14.93 280.537 14.8233 280.764 14.75C280.997 14.6767 281.244 14.64 281.504 14.64C281.75 14.64 281.994 14.6733 282.234 14.74C282.48 14.8067 282.707 14.9033 282.914 15.03C283.12 15.1567 283.294 15.3067 283.434 15.48L282.844 16.13C282.717 16.0033 282.577 15.8933 282.424 15.8C282.277 15.7 282.127 15.6233 281.974 15.57C281.82 15.5167 281.68 15.49 281.554 15.49C281.414 15.49 281.287 15.5033 281.174 15.53C281.06 15.5567 280.964 15.5967 280.884 15.65C280.81 15.7033 280.754 15.77 280.714 15.85C280.674 15.93 280.654 16.02 280.654 16.12C280.66 16.2067 280.68 16.29 280.714 16.37C280.754 16.4433 280.807 16.5067 280.874 16.56C280.947 16.6133 281.057 16.67 281.204 16.73C281.35 16.79 281.537 16.8467 281.764 16.9C282.097 16.9867 282.37 17.0833 282.584 17.19C282.804 17.29 282.977 17.4067 283.104 17.54C283.237 17.6667 283.33 17.8133 283.384 17.98C283.437 18.1467 283.464 18.3333 283.464 18.54C283.464 18.84 283.377 19.11 283.204 19.35C283.037 19.5833 282.81 19.7667 282.524 19.9C282.237 20.0333 281.917 20.1 281.564 20.1ZM287.049 20.1C286.509 20.1 286.029 19.9867 285.609 19.76C285.196 19.5267 284.869 19.21 284.629 18.81C284.396 18.41 284.279 17.95 284.279 17.43C284.279 17.0167 284.346 16.64 284.479 16.3C284.612 15.96 284.796 15.6667 285.029 15.42C285.269 15.1667 285.552 14.9733 285.879 14.84C286.212 14.7 286.572 14.63 286.959 14.63C287.299 14.63 287.616 14.6967 287.909 14.83C288.202 14.9567 288.456 15.1333 288.669 15.36C288.889 15.5867 289.056 15.8567 289.169 16.17C289.289 16.4767 289.346 16.8133 289.339 17.18L289.329 17.62H285.039L284.809 16.8H288.439L288.289 16.97V16.73C288.269 16.51 288.196 16.3133 288.069 16.14C287.942 15.9667 287.782 15.83 287.589 15.73C287.396 15.63 287.186 15.58 286.959 15.58C286.599 15.58 286.296 15.65 286.049 15.79C285.802 15.9233 285.616 16.1233 285.489 16.39C285.362 16.65 285.299 16.9733 285.299 17.36C285.299 17.7267 285.376 18.0467 285.529 18.32C285.682 18.5867 285.899 18.7933 286.179 18.94C286.459 19.0867 286.782 19.16 287.149 19.16C287.409 19.16 287.649 19.1167 287.869 19.03C288.096 18.9433 288.339 18.7867 288.599 18.56L289.119 19.29C288.959 19.45 288.762 19.59 288.529 19.71C288.302 19.83 288.059 19.9267 287.799 20C287.546 20.0667 287.296 20.1 287.049 20.1ZM290.878 20.11C290.658 20.11 290.488 20.0467 290.368 19.92C290.248 19.7867 290.188 19.6 290.188 19.36C290.188 19.14 290.252 18.96 290.378 18.82C290.505 18.68 290.672 18.61 290.878 18.61C291.098 18.61 291.268 18.6767 291.388 18.81C291.508 18.9367 291.568 19.12 291.568 19.36C291.568 19.58 291.505 19.76 291.378 19.9C291.252 20.04 291.085 20.11 290.878 20.11Z" fill="#131212"/>
<rect x="0.5" y="0.5" width="299" height="31" rx="7.5" stroke="#EBBC2E"/>
</svg>
