<svg width="300" height="32" viewBox="0 0 300 32" fill="none" xmlns="http://www.w3.org/2000/svg">
<rect x="0.5" y="0.5" width="299" height="31" rx="7.5" fill="#33B469" fill-opacity="0.2"/>
<path d="M28 26C33.5 26 38 21.5 38 16C38 10.5 33.5 6 28 6C22.5 6 18 10.5 18 16C18 21.5 22.5 26 28 26Z" stroke="#33B469" stroke-width="1.5" stroke-linecap="round" stroke-linejoin="round"/>
<path d="M23.75 16L26.58 18.83L32.25 13.17" stroke="#33B469" stroke-width="1.5" stroke-linecap="round" stroke-linejoin="round"/>
<path d="M48.98 20V13H50.06V18.96H53.34V20H48.98ZM56.871 20.1C56.3577 20.1 55.8977 19.9833 55.491 19.75C55.091 19.51 54.7743 19.1867 54.541 18.78C54.3077 18.3667 54.191 17.8967 54.191 17.37C54.191 16.8433 54.3077 16.3767 54.541 15.97C54.7743 15.5567 55.091 15.2333 55.491 15C55.8977 14.76 56.3577 14.64 56.871 14.64C57.3777 14.64 57.831 14.76 58.231 15C58.6377 15.2333 58.9577 15.5567 59.191 15.97C59.4243 16.3767 59.541 16.8433 59.541 17.37C59.541 17.8967 59.4243 18.3667 59.191 18.78C58.9577 19.1867 58.6377 19.51 58.231 19.75C57.831 19.9833 57.3777 20.1 56.871 20.1ZM56.871 19.16C57.1843 19.16 57.4643 19.0833 57.711 18.93C57.9577 18.77 58.151 18.5567 58.291 18.29C58.431 18.0167 58.4977 17.71 58.491 17.37C58.4977 17.0233 58.431 16.7167 58.291 16.45C58.151 16.1767 57.9577 15.9633 57.711 15.81C57.4643 15.6567 57.1843 15.58 56.871 15.58C56.5577 15.58 56.2743 15.66 56.021 15.82C55.7743 15.9733 55.581 16.1867 55.441 16.46C55.301 16.7267 55.2343 17.03 55.241 17.37C55.2343 17.71 55.301 18.0167 55.441 18.29C55.581 18.5567 55.7743 18.77 56.021 18.93C56.2743 19.0833 56.5577 19.16 56.871 19.16ZM61.758 20L59.968 14.75L61.008 14.74L62.288 18.67L62.058 18.65L63.448 15.58H64.068L65.468 18.66L65.198 18.68L66.488 14.75H67.528L65.758 20H65.048L63.588 16.66L63.818 16.69L62.458 20H61.758ZM70.7696 20.1C70.2296 20.1 69.7496 19.9867 69.3296 19.76C68.9163 19.5267 68.5896 19.21 68.3496 18.81C68.1163 18.41 67.9996 17.95 67.9996 17.43C67.9996 17.0167 68.0663 16.64 68.1996 16.3C68.3329 15.96 68.5163 15.6667 68.7496 15.42C68.9896 15.1667 69.2729 14.9733 69.5996 14.84C69.9329 14.7 70.2929 14.63 70.6796 14.63C71.0196 14.63 71.3363 14.6967 71.6296 14.83C71.9229 14.9567 72.1763 15.1333 72.3896 15.36C72.6096 15.5867 72.7763 15.8567 72.8896 16.17C73.0096 16.4767 73.0663 16.8133 73.0596 17.18L73.0496 17.62H68.7596L68.5296 16.8H72.1596L72.0096 16.97V16.73C71.9896 16.51 71.9163 16.3133 71.7896 16.14C71.6629 15.9667 71.5029 15.83 71.3096 15.73C71.1163 15.63 70.9063 15.58 70.6796 15.58C70.3196 15.58 70.0163 15.65 69.7696 15.79C69.5229 15.9233 69.3363 16.1233 69.2096 16.39C69.0829 16.65 69.0196 16.9733 69.0196 17.36C69.0196 17.7267 69.0963 18.0467 69.2496 18.32C69.4029 18.5867 69.6196 18.7933 69.8996 18.94C70.1796 19.0867 70.5029 19.16 70.8696 19.16C71.1296 19.16 71.3696 19.1167 71.5896 19.03C71.8163 18.9433 72.0596 18.7867 72.3196 18.56L72.8396 19.29C72.6796 19.45 72.4829 19.59 72.2496 19.71C72.0229 19.83 71.7796 19.9267 71.5196 20C71.2663 20.0667 71.0163 20.1 70.7696 20.1ZM74.179 20V14.75H75.219V16.4L75.119 16C75.1923 15.7467 75.3157 15.5167 75.489 15.31C75.669 15.1033 75.8723 14.94 76.099 14.82C76.3323 14.7 76.5723 14.64 76.819 14.64C76.9323 14.64 77.039 14.65 77.139 14.67C77.2457 14.69 77.329 14.7133 77.389 14.74L77.119 15.86C77.039 15.8267 76.949 15.8 76.849 15.78C76.7557 15.7533 76.6623 15.74 76.569 15.74C76.389 15.74 76.2157 15.7767 76.049 15.85C75.889 15.9167 75.7457 16.0133 75.619 16.14C75.499 16.26 75.4023 16.4033 75.329 16.57C75.2557 16.73 75.219 16.9067 75.219 17.1V20H74.179ZM80.2176 20.1C79.7309 20.1 79.2942 19.98 78.9076 19.74C78.5276 19.5 78.2242 19.1733 77.9976 18.76C77.7776 18.3467 77.6676 17.8833 77.6676 17.37C77.6676 16.8567 77.7776 16.3933 77.9976 15.98C78.2242 15.5667 78.5276 15.24 78.9076 15C79.2942 14.76 79.7309 14.64 80.2176 14.64C80.6842 14.64 81.1076 14.7367 81.4876 14.93C81.8742 15.1167 82.1676 15.3733 82.3676 15.7L81.7976 16.4C81.6909 16.2467 81.5542 16.1067 81.3876 15.98C81.2209 15.8533 81.0442 15.7533 80.8576 15.68C80.6709 15.6067 80.4909 15.57 80.3176 15.57C79.9976 15.57 79.7109 15.65 79.4576 15.81C79.2109 15.9633 79.0142 16.1767 78.8676 16.45C78.7209 16.7233 78.6476 17.03 78.6476 17.37C78.6476 17.71 78.7242 18.0167 78.8776 18.29C79.0309 18.5567 79.2342 18.77 79.4876 18.93C79.7409 19.09 80.0209 19.17 80.3276 19.17C80.5076 19.17 80.6809 19.14 80.8476 19.08C81.0209 19.02 81.1876 18.93 81.3476 18.81C81.5076 18.69 81.6576 18.5433 81.7976 18.37L82.3676 19.07C82.1542 19.37 81.8476 19.6167 81.4476 19.81C81.0542 20.0033 80.6442 20.1 80.2176 20.1ZM85.3591 20.1C84.9258 20.1 84.5291 19.98 84.1691 19.74C83.8158 19.5 83.5325 19.1733 83.3191 18.76C83.1058 18.3467 82.9991 17.88 82.9991 17.36C82.9991 16.8333 83.1058 16.3667 83.3191 15.96C83.5391 15.5467 83.8325 15.2233 84.1991 14.99C84.5725 14.7567 84.9891 14.64 85.4491 14.64C85.7225 14.64 85.9725 14.68 86.1991 14.76C86.4258 14.84 86.6225 14.9533 86.7891 15.1C86.9625 15.24 87.1025 15.4033 87.2091 15.59C87.3225 15.7767 87.3925 15.9767 87.4191 16.19L87.1891 16.11V14.75H88.2291V20H87.1891V18.75L87.4291 18.68C87.3891 18.86 87.3058 19.0367 87.1791 19.21C87.0591 19.3767 86.9025 19.5267 86.7091 19.66C86.5225 19.7933 86.3125 19.9 86.0791 19.98C85.8525 20.06 85.6125 20.1 85.3591 20.1ZM85.6291 19.15C85.9425 19.15 86.2191 19.0733 86.4591 18.92C86.6991 18.7667 86.8858 18.5567 87.0191 18.29C87.1591 18.0167 87.2291 17.7067 87.2291 17.36C87.2291 17.02 87.1591 16.7167 87.0191 16.45C86.8858 16.1833 86.6991 15.9733 86.4591 15.82C86.2191 15.6667 85.9425 15.59 85.6291 15.59C85.3225 15.59 85.0491 15.6667 84.8091 15.82C84.5758 15.9733 84.3891 16.1833 84.2491 16.45C84.1158 16.7167 84.0491 17.02 84.0491 17.36C84.0491 17.7067 84.1158 18.0167 84.2491 18.29C84.3891 18.5567 84.5758 18.7667 84.8091 18.92C85.0491 19.0733 85.3225 19.15 85.6291 19.15ZM91.4173 20.1C90.9773 20.1 90.5806 20.0233 90.2273 19.87C89.8739 19.7167 89.5806 19.49 89.3473 19.19L90.0473 18.59C90.2473 18.8233 90.4639 18.9933 90.6973 19.1C90.9373 19.2 91.2073 19.25 91.5073 19.25C91.6273 19.25 91.7373 19.2367 91.8373 19.21C91.9439 19.1767 92.0339 19.13 92.1073 19.07C92.1873 19.01 92.2473 18.94 92.2873 18.86C92.3273 18.7733 92.3473 18.68 92.3473 18.58C92.3473 18.4067 92.2839 18.2667 92.1573 18.16C92.0906 18.1133 91.9839 18.0633 91.8373 18.01C91.6973 17.95 91.5139 17.89 91.2873 17.83C90.9006 17.73 90.5839 17.6167 90.3373 17.49C90.0906 17.3633 89.9006 17.22 89.7673 17.06C89.6673 16.9333 89.5939 16.7967 89.5473 16.65C89.5006 16.4967 89.4773 16.33 89.4773 16.15C89.4773 15.93 89.5239 15.73 89.6173 15.55C89.7173 15.3633 89.8506 15.2033 90.0173 15.07C90.1906 14.93 90.3906 14.8233 90.6173 14.75C90.8506 14.6767 91.0973 14.64 91.3573 14.64C91.6039 14.64 91.8473 14.6733 92.0873 14.74C92.3339 14.8067 92.5606 14.9033 92.7673 15.03C92.9739 15.1567 93.1473 15.3067 93.2873 15.48L92.6973 16.13C92.5706 16.0033 92.4306 15.8933 92.2773 15.8C92.1306 15.7 91.9806 15.6233 91.8273 15.57C91.6739 15.5167 91.5339 15.49 91.4073 15.49C91.2673 15.49 91.1406 15.5033 91.0273 15.53C90.9139 15.5567 90.8173 15.5967 90.7373 15.65C90.6639 15.7033 90.6073 15.77 90.5673 15.85C90.5273 15.93 90.5073 16.02 90.5073 16.12C90.5139 16.2067 90.5339 16.29 90.5673 16.37C90.6073 16.4433 90.6606 16.5067 90.7273 16.56C90.8006 16.6133 90.9106 16.67 91.0573 16.73C91.2039 16.79 91.3906 16.8467 91.6173 16.9C91.9506 16.9867 92.2239 17.0833 92.4373 17.19C92.6573 17.29 92.8306 17.4067 92.9573 17.54C93.0906 17.6667 93.1839 17.8133 93.2373 17.98C93.2906 18.1467 93.3173 18.3333 93.3173 18.54C93.3173 18.84 93.2306 19.11 93.0573 19.35C92.8906 19.5833 92.6639 19.7667 92.3773 19.9C92.0906 20.0333 91.7706 20.1 91.4173 20.1ZM96.9024 20.1C96.3624 20.1 95.8824 19.9867 95.4624 19.76C95.0491 19.5267 94.7224 19.21 94.4824 18.81C94.2491 18.41 94.1324 17.95 94.1324 17.43C94.1324 17.0167 94.1991 16.64 94.3324 16.3C94.4658 15.96 94.6491 15.6667 94.8824 15.42C95.1224 15.1667 95.4058 14.9733 95.7324 14.84C96.0658 14.7 96.4258 14.63 96.8124 14.63C97.1524 14.63 97.4691 14.6967 97.7624 14.83C98.0558 14.9567 98.3091 15.1333 98.5224 15.36C98.7424 15.5867 98.9091 15.8567 99.0224 16.17C99.1424 16.4767 99.1991 16.8133 99.1924 17.18L99.1824 17.62H94.8924L94.6624 16.8H98.2924L98.1424 16.97V16.73C98.1224 16.51 98.0491 16.3133 97.9224 16.14C97.7958 15.9667 97.6358 15.83 97.4424 15.73C97.2491 15.63 97.0391 15.58 96.8124 15.58C96.4524 15.58 96.1491 15.65 95.9024 15.79C95.6558 15.9233 95.4691 16.1233 95.3424 16.39C95.2158 16.65 95.1524 16.9733 95.1524 17.36C95.1524 17.7267 95.2291 18.0467 95.3824 18.32C95.5358 18.5867 95.7524 18.7933 96.0324 18.94C96.3124 19.0867 96.6358 19.16 97.0024 19.16C97.2624 19.16 97.5024 19.1167 97.7224 19.03C97.9491 18.9433 98.1924 18.7867 98.4524 18.56L98.9724 19.29C98.8124 19.45 98.6158 19.59 98.3824 19.71C98.1558 19.83 97.9124 19.9267 97.6524 20C97.3991 20.0667 97.1491 20.1 96.9024 20.1Z" fill="#131212"/>
<rect x="0.5" y="0.5" width="299" height="31" rx="7.5" stroke="#33B469"/>
</svg>
