<svg width="300" height="32" viewBox="0 0 300 32" fill="none" xmlns="http://www.w3.org/2000/svg">
<rect x="0.5" y="0.5" width="299" height="31" rx="7.5" fill="#33B469" fill-opacity="0.2"/>
<path d="M28 26C33.5 26 38 21.5 38 16C38 10.5 33.5 6 28 6C22.5 6 18 10.5 18 16C18 21.5 22.5 26 28 26Z" stroke="#33B469" stroke-width="1.5" stroke-linecap="round" stroke-linejoin="round"/>
<path d="M23.75 16L26.58 18.83L32.25 13.17" stroke="#33B469" stroke-width="1.5" stroke-linecap="round" stroke-linejoin="round"/>
<path d="M48.98 20V13H49.95L54.23 18.73L54.07 18.82C54.0433 18.6533 54.02 18.4733 54 18.28C53.98 18.08 53.96 17.87 53.94 17.65C53.9267 17.4233 53.9133 17.1867 53.9 16.94C53.8933 16.6867 53.8867 16.4233 53.88 16.15C53.8733 15.8767 53.87 15.5933 53.87 15.3V13H54.95V20H53.96L49.75 14.48L49.86 14.34C49.8933 14.7467 49.92 15.0933 49.94 15.38C49.9667 15.66 49.9867 15.9 50 16.1C50.02 16.2933 50.0333 16.4533 50.04 16.58C50.0467 16.7 50.05 16.8 50.05 16.88C50.0567 16.96 50.06 17.03 50.06 17.09V20H48.98ZM58.4897 20.1C58.1164 20.1 57.7897 20.0133 57.5097 19.84C57.2364 19.6667 57.023 19.4233 56.8697 19.11C56.723 18.7967 56.6497 18.4233 56.6497 17.99V14.75H57.6797V17.71C57.6797 18.0167 57.7264 18.2833 57.8197 18.51C57.9197 18.73 58.0597 18.9 58.2397 19.02C58.4264 19.14 58.6497 19.2 58.9097 19.2C59.103 19.2 59.2797 19.17 59.4397 19.11C59.5997 19.0433 59.7364 18.9533 59.8497 18.84C59.9697 18.7267 60.063 18.59 60.1297 18.43C60.1964 18.27 60.2297 18.0967 60.2297 17.91V14.75H61.2597V20H60.2297V18.9L60.4097 18.78C60.3297 19.0267 60.193 19.25 59.9997 19.45C59.813 19.65 59.5897 19.81 59.3297 19.93C59.0697 20.0433 58.7897 20.1 58.4897 20.1ZM62.6844 20V14.75H63.7244V15.87L63.5344 15.99C63.5877 15.8167 63.671 15.65 63.7844 15.49C63.9044 15.33 64.0477 15.19 64.2144 15.07C64.3877 14.9433 64.571 14.8433 64.7644 14.77C64.9644 14.6967 65.1677 14.66 65.3744 14.66C65.6744 14.66 65.9377 14.71 66.1644 14.81C66.391 14.91 66.5777 15.06 66.7244 15.26C66.871 15.46 66.9777 15.71 67.0444 16.01L66.8844 15.97L66.9544 15.8C67.0277 15.6467 67.1277 15.5033 67.2544 15.37C67.3877 15.23 67.5377 15.1067 67.7044 15C67.871 14.8933 68.0477 14.81 68.2344 14.75C68.421 14.69 68.6044 14.66 68.7844 14.66C69.1777 14.66 69.501 14.74 69.7544 14.9C70.0144 15.06 70.2077 15.3033 70.3344 15.63C70.4677 15.9567 70.5344 16.3633 70.5344 16.85V20H69.4944V16.91C69.4944 16.61 69.4544 16.3667 69.3744 16.18C69.301 15.9867 69.1877 15.8433 69.0344 15.75C68.881 15.6567 68.6844 15.61 68.4444 15.61C68.2577 15.61 68.081 15.6433 67.9144 15.71C67.7544 15.77 67.6144 15.8567 67.4944 15.97C67.3744 16.0833 67.281 16.2167 67.2144 16.37C67.1477 16.5167 67.1144 16.68 67.1144 16.86V20H66.0744V16.89C66.0744 16.6167 66.0344 16.3867 65.9544 16.2C65.8744 16.0067 65.7577 15.86 65.6044 15.76C65.451 15.66 65.2644 15.61 65.0444 15.61C64.8577 15.61 64.6844 15.6433 64.5244 15.71C64.3644 15.77 64.2244 15.8567 64.1044 15.97C63.9844 16.0767 63.891 16.2067 63.8244 16.36C63.7577 16.5067 63.7244 16.6667 63.7244 16.84V20H62.6844ZM74.6734 20.1C74.4467 20.1 74.22 20.0633 73.9934 19.99C73.7734 19.9167 73.57 19.82 73.3834 19.7C73.2034 19.5733 73.05 19.4367 72.9234 19.29C72.8034 19.1367 72.7234 18.9833 72.6834 18.83L72.9434 18.69V19.97H71.9134V12.6H72.9434V15.95L72.7834 15.86C72.8167 15.7067 72.89 15.56 73.0034 15.42C73.1167 15.2733 73.26 15.1433 73.4334 15.03C73.6134 14.91 73.8067 14.8167 74.0134 14.75C74.22 14.6767 74.43 14.64 74.6434 14.64C75.1167 14.64 75.5367 14.7567 75.9034 14.99C76.27 15.2233 76.56 15.5467 76.7734 15.96C76.9867 16.3667 77.0934 16.8333 77.0934 17.36C77.0934 17.8867 76.9867 18.3567 76.7734 18.77C76.5667 19.1833 76.28 19.51 75.9134 19.75C75.5467 19.9833 75.1334 20.1 74.6734 20.1ZM74.5034 19.16C74.81 19.16 75.0834 19.0833 75.3234 18.93C75.5634 18.77 75.7534 18.5567 75.8934 18.29C76.0334 18.0167 76.1034 17.7067 76.1034 17.36C76.1034 17.02 76.0334 16.7167 75.8934 16.45C75.76 16.1767 75.5734 15.9633 75.3334 15.81C75.0934 15.6567 74.8167 15.58 74.5034 15.58C74.19 15.58 73.9134 15.6567 73.6734 15.81C73.4334 15.9633 73.2434 16.1767 73.1034 16.45C72.9634 16.7167 72.8934 17.02 72.8934 17.36C72.8934 17.7067 72.9634 18.0167 73.1034 18.29C73.2434 18.5567 73.4334 18.77 73.6734 18.93C73.9134 19.0833 74.19 19.16 74.5034 19.16ZM80.6622 20.1C80.1222 20.1 79.6422 19.9867 79.2222 19.76C78.8089 19.5267 78.4822 19.21 78.2422 18.81C78.0089 18.41 77.8922 17.95 77.8922 17.43C77.8922 17.0167 77.9589 16.64 78.0922 16.3C78.2255 15.96 78.4089 15.6667 78.6422 15.42C78.8822 15.1667 79.1655 14.9733 79.4922 14.84C79.8255 14.7 80.1855 14.63 80.5722 14.63C80.9122 14.63 81.2289 14.6967 81.5222 14.83C81.8155 14.9567 82.0689 15.1333 82.2822 15.36C82.5022 15.5867 82.6689 15.8567 82.7822 16.17C82.9022 16.4767 82.9589 16.8133 82.9522 17.18L82.9422 17.62H78.6522L78.4222 16.8H82.0522L81.9022 16.97V16.73C81.8822 16.51 81.8089 16.3133 81.6822 16.14C81.5555 15.9667 81.3955 15.83 81.2022 15.73C81.0089 15.63 80.7989 15.58 80.5722 15.58C80.2122 15.58 79.9089 15.65 79.6622 15.79C79.4155 15.9233 79.2289 16.1233 79.1022 16.39C78.9755 16.65 78.9122 16.9733 78.9122 17.36C78.9122 17.7267 78.9889 18.0467 79.1422 18.32C79.2955 18.5867 79.5122 18.7933 79.7922 18.94C80.0722 19.0867 80.3955 19.16 80.7622 19.16C81.0222 19.16 81.2622 19.1167 81.4822 19.03C81.7089 18.9433 81.9522 18.7867 82.2122 18.56L82.7322 19.29C82.5722 19.45 82.3755 19.59 82.1422 19.71C81.9155 19.83 81.6722 19.9267 81.4122 20C81.1589 20.0667 80.9089 20.1 80.6622 20.1ZM84.0716 20V14.75H85.1116V16.4L85.0116 16C85.0849 15.7467 85.2082 15.5167 85.3816 15.31C85.5616 15.1033 85.7649 14.94 85.9916 14.82C86.2249 14.7 86.4649 14.64 86.7116 14.64C86.8249 14.64 86.9316 14.65 87.0316 14.67C87.1382 14.69 87.2216 14.7133 87.2816 14.74L87.0116 15.86C86.9316 15.8267 86.8416 15.8 86.7416 15.78C86.6482 15.7533 86.5549 15.74 86.4616 15.74C86.2816 15.74 86.1082 15.7767 85.9416 15.85C85.7816 15.9167 85.6382 16.0133 85.5116 16.14C85.3916 16.26 85.2949 16.4033 85.2216 16.57C85.1482 16.73 85.1116 16.9067 85.1116 17.1V20H84.0716Z" fill="#131212"/>
<rect x="0.5" y="0.5" width="299" height="31" rx="7.5" stroke="#33B469"/>
</svg>
