<svg width="300" height="32" viewBox="0 0 300 32" fill="none" xmlns="http://www.w3.org/2000/svg">
<rect x="0.5" y="0.5" width="299" height="31" rx="7.5" fill="#33B469" fill-opacity="0.2"/>
<path d="M28 26C33.5 26 38 21.5 38 16C38 10.5 33.5 6 28 6C22.5 6 18 10.5 18 16C18 21.5 22.5 26 28 26Z" stroke="#33B469" stroke-width="1.5" stroke-linecap="round" stroke-linejoin="round"/>
<path d="M23.75 16L26.58 18.83L32.25 13.17" stroke="#33B469" stroke-width="1.5" stroke-linecap="round" stroke-linejoin="round"/>
<path d="M51.7 20.06C51.16 20.06 50.6767 19.9433 50.25 19.71C49.8233 19.47 49.4867 19.1433 49.24 18.73C49 18.31 48.88 17.8367 48.88 17.31V12.99H49.96V17.22C49.96 17.56 50.04 17.8667 50.2 18.14C50.36 18.4067 50.57 18.62 50.83 18.78C51.0967 18.94 51.3867 19.02 51.7 19.02C52.0333 19.02 52.3333 18.94 52.6 18.78C52.8733 18.62 53.09 18.4067 53.25 18.14C53.41 17.8667 53.49 17.56 53.49 17.22V12.99H54.52V17.31C54.52 17.8367 54.3967 18.31 54.15 18.73C53.91 19.1433 53.5767 19.47 53.15 19.71C52.7233 19.9433 52.24 20.06 51.7 20.06ZM56.1223 22.2V14.75H57.1623V15.95L57.0023 15.86C57.0423 15.66 57.1557 15.47 57.3423 15.29C57.529 15.1033 57.7557 14.9533 58.0223 14.84C58.2957 14.72 58.5757 14.66 58.8623 14.66C59.3357 14.66 59.7557 14.7767 60.1223 15.01C60.489 15.2433 60.779 15.5633 60.9923 15.97C61.2057 16.3767 61.3123 16.8433 61.3123 17.37C61.3123 17.89 61.2057 18.3567 60.9923 18.77C60.7857 19.1767 60.499 19.5 60.1323 19.74C59.7657 19.9733 59.3523 20.09 58.8923 20.09C58.5857 20.09 58.289 20.03 58.0023 19.91C57.7157 19.7833 57.4723 19.6233 57.2723 19.43C57.0723 19.2367 56.949 19.0367 56.9023 18.83L57.1623 18.69V22.2H56.1223ZM58.7223 19.14C59.029 19.14 59.3023 19.0633 59.5423 18.91C59.7823 18.7567 59.9723 18.5467 60.1123 18.28C60.2523 18.0133 60.3223 17.71 60.3223 17.37C60.3223 17.03 60.2523 16.73 60.1123 16.47C59.979 16.2033 59.7923 15.9933 59.5523 15.84C59.3123 15.6867 59.0357 15.61 58.7223 15.61C58.409 15.61 58.1323 15.6867 57.8923 15.84C57.6523 15.9867 57.4623 16.1933 57.3223 16.46C57.1823 16.7267 57.1123 17.03 57.1123 17.37C57.1123 17.71 57.1823 18.0133 57.3223 18.28C57.4623 18.5467 57.6523 18.7567 57.8923 18.91C58.1323 19.0633 58.409 19.14 58.7223 19.14ZM62.4309 22.2V14.75H63.4709V15.95L63.3109 15.86C63.3509 15.66 63.4643 15.47 63.6509 15.29C63.8376 15.1033 64.0643 14.9533 64.3309 14.84C64.6043 14.72 64.8843 14.66 65.1709 14.66C65.6443 14.66 66.0643 14.7767 66.4309 15.01C66.7976 15.2433 67.0876 15.5633 67.3009 15.97C67.5143 16.3767 67.6209 16.8433 67.6209 17.37C67.6209 17.89 67.5143 18.3567 67.3009 18.77C67.0943 19.1767 66.8076 19.5 66.4409 19.74C66.0743 19.9733 65.6609 20.09 65.2009 20.09C64.8943 20.09 64.5976 20.03 64.3109 19.91C64.0243 19.7833 63.7809 19.6233 63.5809 19.43C63.3809 19.2367 63.2576 19.0367 63.2109 18.83L63.4709 18.69V22.2H62.4309ZM65.0309 19.14C65.3376 19.14 65.6109 19.0633 65.8509 18.91C66.0909 18.7567 66.2809 18.5467 66.4209 18.28C66.5609 18.0133 66.6309 17.71 66.6309 17.37C66.6309 17.03 66.5609 16.73 66.4209 16.47C66.2876 16.2033 66.1009 15.9933 65.8609 15.84C65.6209 15.6867 65.3443 15.61 65.0309 15.61C64.7176 15.61 64.4409 15.6867 64.2009 15.84C63.9609 15.9867 63.7709 16.1933 63.6309 16.46C63.4909 16.7267 63.4209 17.03 63.4209 17.37C63.4209 17.71 63.4909 18.0133 63.6309 18.28C63.7709 18.5467 63.9609 18.7567 64.2009 18.91C64.4409 19.0633 64.7176 19.14 65.0309 19.14ZM71.1895 20.1C70.6495 20.1 70.1695 19.9867 69.7495 19.76C69.3362 19.5267 69.0095 19.21 68.7695 18.81C68.5362 18.41 68.4195 17.95 68.4195 17.43C68.4195 17.0167 68.4862 16.64 68.6195 16.3C68.7529 15.96 68.9362 15.6667 69.1695 15.42C69.4095 15.1667 69.6929 14.9733 70.0195 14.84C70.3529 14.7 70.7129 14.63 71.0995 14.63C71.4395 14.63 71.7562 14.6967 72.0495 14.83C72.3429 14.9567 72.5962 15.1333 72.8095 15.36C73.0295 15.5867 73.1962 15.8567 73.3095 16.17C73.4295 16.4767 73.4862 16.8133 73.4795 17.18L73.4695 17.62H69.1795L68.9495 16.8H72.5795L72.4295 16.97V16.73C72.4095 16.51 72.3362 16.3133 72.2095 16.14C72.0829 15.9667 71.9229 15.83 71.7295 15.73C71.5362 15.63 71.3262 15.58 71.0995 15.58C70.7395 15.58 70.4362 15.65 70.1895 15.79C69.9429 15.9233 69.7562 16.1233 69.6295 16.39C69.5029 16.65 69.4395 16.9733 69.4395 17.36C69.4395 17.7267 69.5162 18.0467 69.6695 18.32C69.8229 18.5867 70.0395 18.7933 70.3195 18.94C70.5995 19.0867 70.9229 19.16 71.2895 19.16C71.5495 19.16 71.7895 19.1167 72.0095 19.03C72.2362 18.9433 72.4795 18.7867 72.7395 18.56L73.2595 19.29C73.0995 19.45 72.9029 19.59 72.6695 19.71C72.4429 19.83 72.1995 19.9267 71.9395 20C71.6862 20.0667 71.4362 20.1 71.1895 20.1ZM74.5989 20V14.75H75.6389V16.4L75.5389 16C75.6122 15.7467 75.7356 15.5167 75.9089 15.31C76.0889 15.1033 76.2922 14.94 76.5189 14.82C76.7522 14.7 76.9922 14.64 77.2389 14.64C77.3522 14.64 77.4589 14.65 77.5589 14.67C77.6656 14.69 77.7489 14.7133 77.8089 14.74L77.5389 15.86C77.4589 15.8267 77.3689 15.8 77.2689 15.78C77.1756 15.7533 77.0822 15.74 76.9889 15.74C76.8089 15.74 76.6356 15.7767 76.4689 15.85C76.3089 15.9167 76.1656 16.0133 76.0389 16.14C75.9189 16.26 75.8222 16.4033 75.7489 16.57C75.6756 16.73 75.6389 16.9067 75.6389 17.1V20H74.5989ZM80.6375 20.1C80.1508 20.1 79.7142 19.98 79.3275 19.74C78.9475 19.5 78.6442 19.1733 78.4175 18.76C78.1975 18.3467 78.0875 17.8833 78.0875 17.37C78.0875 16.8567 78.1975 16.3933 78.4175 15.98C78.6442 15.5667 78.9475 15.24 79.3275 15C79.7142 14.76 80.1508 14.64 80.6375 14.64C81.1042 14.64 81.5275 14.7367 81.9075 14.93C82.2942 15.1167 82.5875 15.3733 82.7875 15.7L82.2175 16.4C82.1108 16.2467 81.9742 16.1067 81.8075 15.98C81.6408 15.8533 81.4642 15.7533 81.2775 15.68C81.0908 15.6067 80.9108 15.57 80.7375 15.57C80.4175 15.57 80.1308 15.65 79.8775 15.81C79.6308 15.9633 79.4342 16.1767 79.2875 16.45C79.1408 16.7233 79.0675 17.03 79.0675 17.37C79.0675 17.71 79.1442 18.0167 79.2975 18.29C79.4508 18.5567 79.6542 18.77 79.9075 18.93C80.1608 19.09 80.4408 19.17 80.7475 19.17C80.9275 19.17 81.1008 19.14 81.2675 19.08C81.4408 19.02 81.6075 18.93 81.7675 18.81C81.9275 18.69 82.0775 18.5433 82.2175 18.37L82.7875 19.07C82.5742 19.37 82.2675 19.6167 81.8675 19.81C81.4742 20.0033 81.0642 20.1 80.6375 20.1ZM85.7791 20.1C85.3457 20.1 84.9491 19.98 84.5891 19.74C84.2357 19.5 83.9524 19.1733 83.7391 18.76C83.5257 18.3467 83.4191 17.88 83.4191 17.36C83.4191 16.8333 83.5257 16.3667 83.7391 15.96C83.9591 15.5467 84.2524 15.2233 84.6191 14.99C84.9924 14.7567 85.4091 14.64 85.8691 14.64C86.1424 14.64 86.3924 14.68 86.6191 14.76C86.8457 14.84 87.0424 14.9533 87.2091 15.1C87.3824 15.24 87.5224 15.4033 87.6291 15.59C87.7424 15.7767 87.8124 15.9767 87.8391 16.19L87.6091 16.11V14.75H88.6491V20H87.6091V18.75L87.8491 18.68C87.8091 18.86 87.7257 19.0367 87.5991 19.21C87.4791 19.3767 87.3224 19.5267 87.1291 19.66C86.9424 19.7933 86.7324 19.9 86.4991 19.98C86.2724 20.06 86.0324 20.1 85.7791 20.1ZM86.0491 19.15C86.3624 19.15 86.6391 19.0733 86.8791 18.92C87.1191 18.7667 87.3057 18.5567 87.4391 18.29C87.5791 18.0167 87.6491 17.7067 87.6491 17.36C87.6491 17.02 87.5791 16.7167 87.4391 16.45C87.3057 16.1833 87.1191 15.9733 86.8791 15.82C86.6391 15.6667 86.3624 15.59 86.0491 15.59C85.7424 15.59 85.4691 15.6667 85.2291 15.82C84.9957 15.9733 84.8091 16.1833 84.6691 16.45C84.5357 16.7167 84.4691 17.02 84.4691 17.36C84.4691 17.7067 84.5357 18.0167 84.6691 18.29C84.8091 18.5567 84.9957 18.7667 85.2291 18.92C85.4691 19.0733 85.7424 19.15 86.0491 19.15ZM91.8372 20.1C91.3972 20.1 91.0005 20.0233 90.6472 19.87C90.2939 19.7167 90.0005 19.49 89.7672 19.19L90.4672 18.59C90.6672 18.8233 90.8839 18.9933 91.1172 19.1C91.3572 19.2 91.6272 19.25 91.9272 19.25C92.0472 19.25 92.1572 19.2367 92.2572 19.21C92.3639 19.1767 92.4539 19.13 92.5272 19.07C92.6072 19.01 92.6672 18.94 92.7072 18.86C92.7472 18.7733 92.7672 18.68 92.7672 18.58C92.7672 18.4067 92.7039 18.2667 92.5772 18.16C92.5105 18.1133 92.4039 18.0633 92.2572 18.01C92.1172 17.95 91.9339 17.89 91.7072 17.83C91.3205 17.73 91.0039 17.6167 90.7572 17.49C90.5105 17.3633 90.3205 17.22 90.1872 17.06C90.0872 16.9333 90.0139 16.7967 89.9672 16.65C89.9205 16.4967 89.8972 16.33 89.8972 16.15C89.8972 15.93 89.9439 15.73 90.0372 15.55C90.1372 15.3633 90.2705 15.2033 90.4372 15.07C90.6105 14.93 90.8105 14.8233 91.0372 14.75C91.2705 14.6767 91.5172 14.64 91.7772 14.64C92.0239 14.64 92.2672 14.6733 92.5072 14.74C92.7539 14.8067 92.9805 14.9033 93.1872 15.03C93.3939 15.1567 93.5672 15.3067 93.7072 15.48L93.1172 16.13C92.9905 16.0033 92.8505 15.8933 92.6972 15.8C92.5505 15.7 92.4005 15.6233 92.2472 15.57C92.0939 15.5167 91.9539 15.49 91.8272 15.49C91.6872 15.49 91.5605 15.5033 91.4472 15.53C91.3339 15.5567 91.2372 15.5967 91.1572 15.65C91.0839 15.7033 91.0272 15.77 90.9872 15.85C90.9472 15.93 90.9272 16.02 90.9272 16.12C90.9339 16.2067 90.9539 16.29 90.9872 16.37C91.0272 16.4433 91.0805 16.5067 91.1472 16.56C91.2205 16.6133 91.3305 16.67 91.4772 16.73C91.6239 16.79 91.8105 16.8467 92.0372 16.9C92.3705 16.9867 92.6439 17.0833 92.8572 17.19C93.0772 17.29 93.2505 17.4067 93.3772 17.54C93.5105 17.6667 93.6039 17.8133 93.6572 17.98C93.7105 18.1467 93.7372 18.3333 93.7372 18.54C93.7372 18.84 93.6505 19.11 93.4772 19.35C93.3105 19.5833 93.0839 19.7667 92.7972 19.9C92.5105 20.0333 92.1905 20.1 91.8372 20.1ZM97.3223 20.1C96.7823 20.1 96.3023 19.9867 95.8823 19.76C95.469 19.5267 95.1423 19.21 94.9023 18.81C94.669 18.41 94.5523 17.95 94.5523 17.43C94.5523 17.0167 94.619 16.64 94.7523 16.3C94.8857 15.96 95.069 15.6667 95.3023 15.42C95.5423 15.1667 95.8257 14.9733 96.1523 14.84C96.4857 14.7 96.8457 14.63 97.2323 14.63C97.5723 14.63 97.889 14.6967 98.1823 14.83C98.4757 14.9567 98.729 15.1333 98.9423 15.36C99.1623 15.5867 99.329 15.8567 99.4423 16.17C99.5623 16.4767 99.619 16.8133 99.6123 17.18L99.6023 17.62H95.3123L95.0823 16.8H98.7123L98.5623 16.97V16.73C98.5423 16.51 98.469 16.3133 98.3423 16.14C98.2157 15.9667 98.0557 15.83 97.8623 15.73C97.669 15.63 97.459 15.58 97.2323 15.58C96.8723 15.58 96.569 15.65 96.3223 15.79C96.0757 15.9233 95.889 16.1233 95.7623 16.39C95.6357 16.65 95.5723 16.9733 95.5723 17.36C95.5723 17.7267 95.649 18.0467 95.8023 18.32C95.9557 18.5867 96.1723 18.7933 96.4523 18.94C96.7323 19.0867 97.0557 19.16 97.4223 19.16C97.6823 19.16 97.9223 19.1167 98.1423 19.03C98.369 18.9433 98.6123 18.7867 98.8723 18.56L99.3923 19.29C99.2323 19.45 99.0357 19.59 98.8023 19.71C98.5757 19.83 98.3323 19.9267 98.0723 20C97.819 20.0667 97.569 20.1 97.3223 20.1Z" fill="#131212"/>
<rect x="0.5" y="0.5" width="299" height="31" rx="7.5" stroke="#33B469"/>
</svg>
