<svg width="33" height="48" viewBox="0 0 33 48" fill="none" xmlns="http://www.w3.org/2000/svg">
<path d="M17.69 6H11.29C11.03 6 10.78 6.01 10.54 6.04C7.85 6.27 6.5 7.86 6.5 10.79V14.79C6.5 18.79 8.1 19.58 11.29 19.58H11.69C11.91 19.58 12.2 19.73 12.33 19.9L13.53 21.5C14.06 22.21 14.92 22.21 15.45 21.5L16.65 19.9C16.8 19.7 17.04 19.58 17.29 19.58H17.69C20.62 19.58 22.21 18.24 22.44 15.54C22.47 15.3 22.48 15.05 22.48 14.79V10.79C22.48 7.6 20.88 6 17.69 6ZM11 14C10.44 14 10 13.55 10 13C10 12.45 10.45 12 11 12C11.55 12 12 12.45 12 13C12 13.55 11.55 14 11 14ZM14.49 14C13.93 14 13.49 13.55 13.49 13C13.49 12.45 13.94 12 14.49 12C15.04 12 15.49 12.45 15.49 13C15.49 13.55 15.05 14 14.49 14ZM17.99 14C17.43 14 16.99 13.55 16.99 13C16.99 12.45 17.44 12 17.99 12C18.54 12 18.99 12.45 18.99 13C18.99 13.55 18.54 14 17.99 14Z" fill="#FC766A"/>
<path d="M26.48 6.79V10.79C26.48 12.79 25.86 14.15 24.62 14.9C24.32 15.08 23.97 14.84 23.97 14.49L23.98 10.79C23.98 6.79 21.69 4.5 17.69 4.5L11.6 4.51C11.25 4.51 11.01 4.16 11.19 3.86C11.94 2.62 13.3 2 15.29 2H21.69C24.88 2 26.48 3.6 26.48 6.79Z" fill="#FC766A"/>
<path d="M6.26433 45.13C5.57966 45.13 4.947 45.0173 4.36633 44.792C3.79433 44.558 3.29599 44.233 2.87133 43.817C2.44666 43.3923 2.11733 42.894 1.88333 42.322C1.65799 41.7413 1.54533 41.1043 1.54533 40.411C1.54533 39.735 1.66666 39.111 1.90933 38.539C2.15199 37.967 2.48566 37.473 2.91033 37.057C3.34366 36.6323 3.85066 36.303 4.43133 36.069C5.02066 35.835 5.66199 35.718 6.35533 35.718C6.78866 35.718 7.21333 35.7743 7.62933 35.887C8.04533 35.9997 8.431 36.1687 8.78633 36.394C9.15033 36.6107 9.46233 36.8707 9.72233 37.174L8.37033 38.721C8.18833 38.5303 7.99333 38.3657 7.78533 38.227C7.58599 38.0797 7.36499 37.967 7.12233 37.889C6.87966 37.811 6.61966 37.772 6.34233 37.772C5.99566 37.772 5.66633 37.837 5.35433 37.967C5.051 38.0883 4.78233 38.266 4.54833 38.5C4.32299 38.7253 4.14533 39.0027 4.01533 39.332C3.88533 39.6613 3.82033 40.0297 3.82033 40.437C3.82033 40.8357 3.88533 41.1997 4.01533 41.529C4.14533 41.8497 4.32733 42.127 4.56133 42.361C4.79533 42.595 5.07699 42.7727 5.40633 42.894C5.74433 43.0153 6.11699 43.076 6.52433 43.076C6.80166 43.076 7.066 43.037 7.31733 42.959C7.56866 42.881 7.79833 42.777 8.00633 42.647C8.22299 42.5083 8.41366 42.3523 8.57833 42.179L9.64433 43.869C9.42766 44.1117 9.13733 44.3283 8.77333 44.519C8.418 44.7097 8.01933 44.8613 7.57733 44.974C7.144 45.078 6.70633 45.13 6.26433 45.13ZM10.9357 45V35.38H12.9767V39.501L12.5607 39.657C12.656 39.345 12.825 39.0633 13.0677 38.812C13.319 38.552 13.618 38.344 13.9647 38.188C14.3114 38.032 14.6754 37.954 15.0567 37.954C15.5767 37.954 16.0144 38.0623 16.3697 38.279C16.725 38.487 16.9937 38.8033 17.1757 39.228C17.3577 39.644 17.4487 40.1553 17.4487 40.762V45H15.3557V40.931C15.3557 40.6537 15.3167 40.424 15.2387 40.242C15.1607 40.06 15.0394 39.9257 14.8747 39.839C14.7187 39.7437 14.5237 39.7003 14.2897 39.709C14.1077 39.709 13.9387 39.7393 13.7827 39.8C13.6267 39.852 13.4924 39.9343 13.3797 40.047C13.267 40.151 13.176 40.2723 13.1067 40.411C13.046 40.5497 13.0157 40.7013 13.0157 40.866V45H11.9887C11.746 45 11.538 45 11.3647 45C11.1914 45 11.0484 45 10.9357 45ZM21.7356 45.117C21.155 45.117 20.635 44.9653 20.1756 44.662C19.725 44.35 19.3653 43.9253 19.0966 43.388C18.828 42.842 18.6936 42.2267 18.6936 41.542C18.6936 40.84 18.828 40.2203 19.0966 39.683C19.3653 39.1457 19.7336 38.7253 20.2016 38.422C20.6696 38.11 21.2026 37.954 21.8006 37.954C22.13 37.954 22.429 38.0017 22.6976 38.097C22.975 38.1923 23.2176 38.3267 23.4256 38.5C23.6336 38.6647 23.8113 38.8597 23.9586 39.085C24.106 39.3017 24.2143 39.5357 24.2836 39.787L23.8546 39.735V38.097H25.9216V45H23.8156V43.336L24.2836 43.323C24.2143 43.5657 24.1016 43.7953 23.9456 44.012C23.7896 44.2287 23.599 44.4193 23.3736 44.584C23.1483 44.7487 22.897 44.8787 22.6196 44.974C22.3423 45.0693 22.0476 45.117 21.7356 45.117ZM22.3076 43.362C22.6283 43.362 22.9056 43.2883 23.1396 43.141C23.3736 42.9937 23.5556 42.7857 23.6856 42.517C23.8156 42.2397 23.8806 41.9147 23.8806 41.542C23.8806 41.1693 23.8156 40.8487 23.6856 40.58C23.5556 40.3027 23.3736 40.0903 23.1396 39.943C22.9056 39.787 22.6283 39.709 22.3076 39.709C21.9956 39.709 21.7226 39.787 21.4886 39.943C21.2633 40.0903 21.0856 40.3027 20.9556 40.58C20.8256 40.8487 20.7606 41.1693 20.7606 41.542C20.7606 41.9147 20.8256 42.2397 20.9556 42.517C21.0856 42.7857 21.2633 42.9937 21.4886 43.141C21.7226 43.2883 21.9956 43.362 22.3076 43.362ZM28.329 45V36.355H30.409V45H28.329ZM27.107 39.917V38.097H31.748V39.917H27.107Z" fill="#FC766A"/>
</svg>
