<svg width="25" height="25" viewBox="0 0 25 25" fill="none" xmlns="http://www.w3.org/2000/svg">
<path d="M15.4409 23.25H9.44092C4.01092 23.25 1.69092 20.93 1.69092 15.5V9.5C1.69092 4.07 4.01092 1.75 9.44092 1.75H15.4409C20.8709 1.75 23.1909 4.07 23.1909 9.5V15.5C23.1909 20.93 20.8709 23.25 15.4409 23.25ZM9.44092 3.25C4.83092 3.25 3.19092 4.89 3.19092 9.5V15.5C3.19092 20.11 4.83092 21.75 9.44092 21.75H15.4409C20.0509 21.75 21.6909 20.11 21.6909 15.5V9.5C21.6909 4.89 20.0509 3.25 15.4409 3.25H9.44092Z" fill="#FC766A"/>
<path d="M9.44092 11.25C7.92092 11.25 6.69092 10.02 6.69092 8.5C6.69092 6.98 7.92092 5.75 9.44092 5.75C10.9609 5.75 12.1909 6.98 12.1909 8.5C12.1909 10.02 10.9609 11.25 9.44092 11.25ZM9.44092 7.25C8.75092 7.25 8.19092 7.81 8.19092 8.5C8.19092 9.19 8.75092 9.75 9.44092 9.75C10.1309 9.75 10.6909 9.19 10.6909 8.5C10.6909 7.81 10.1309 7.25 9.44092 7.25Z" fill="#FC766A"/>
<path d="M3.11093 20.2001C2.87093 20.2001 2.63093 20.0801 2.49093 19.8701C2.26093 19.5301 2.35093 19.0601 2.70093 18.8301L7.63093 15.5201C8.71093 14.7901 10.2009 14.8801 11.1809 15.7101L11.5109 16.0001C12.0109 16.4301 12.8609 16.4301 13.3509 16.0001L17.5109 12.4301C18.5709 11.5201 20.2409 11.5201 21.3109 12.4301L22.9409 13.8301C23.2509 14.1001 23.2909 14.5701 23.0209 14.8901C22.7509 15.2001 22.2809 15.2401 21.9609 14.9701L20.3309 13.5701C19.8309 13.1401 18.9809 13.1401 18.4809 13.5701L14.3209 17.1401C13.2609 18.0501 11.5909 18.0501 10.5209 17.1401L10.1909 16.8501C9.73093 16.4601 8.97093 16.4201 8.46093 16.7701L3.53093 20.0801C3.40093 20.1601 3.25093 20.2001 3.11093 20.2001Z" fill="#FC766A"/>
</svg>
