<svg width="38" height="38" viewBox="0 0 38 38" fill="none" xmlns="http://www.w3.org/2000/svg">
<path fill-rule="evenodd" clip-rule="evenodd" d="M15.3673 7.02666C12.2962 8.07939 9.67931 10.3818 8.22172 13.2955C7.71328 14.3007 7.34718 15.367 7.12346 16.474C6.56755 19.2179 6.95398 22.1452 8.21495 24.6445C9.03527 26.2745 10.2149 27.728 11.6386 28.8622C12.9877 29.9353 14.5537 30.7368 16.2215 31.1782C18.3231 31.742 20.5603 31.7283 22.6755 31.2461C24.5873 30.8047 26.3974 29.8878 27.8415 28.5566C29.3668 27.1507 30.4583 25.3033 31.0346 23.3133C31.665 21.1468 31.7463 18.8308 31.3534 16.6031C27.4008 16.6031 23.4416 16.6031 19.4892 16.6031C19.4892 18.2467 19.4892 19.8903 19.4892 21.5339C21.7806 21.5339 24.0721 21.5339 26.3636 21.5339C26.0991 23.1096 25.1636 24.5494 23.8416 25.4391C23.0077 26.0029 22.0518 26.3628 21.062 26.5394C20.0722 26.7092 19.0417 26.7296 18.0519 26.5326C17.0418 26.3289 16.0859 25.9078 15.2452 25.3169C13.9029 24.3728 12.8792 22.9941 12.3572 21.4388C11.8216 19.8563 11.8148 18.0972 12.3572 16.5216C12.7368 15.4077 13.3606 14.3821 14.1877 13.54C15.2046 12.494 16.5266 11.7469 17.957 11.4413C19.1773 11.1832 20.4654 11.2308 21.6586 11.5907C22.6755 11.8964 23.6111 12.4601 24.3772 13.1936C25.15 12.4193 25.9229 11.6451 26.6957 10.8708C27.1025 10.4565 27.5296 10.0558 27.9228 9.62789C26.75 8.54122 25.367 7.66506 23.8619 7.10814C21.1501 6.10298 18.0994 6.08258 15.3673 7.02666Z" fill="white"/>
<path fill-rule="evenodd" clip-rule="evenodd" d="M15.3665 7.02623C18.0918 6.08215 21.1494 6.10254 23.8611 7.10093C25.3662 7.65785 26.7424 8.5272 27.922 9.62068C27.5288 10.0486 27.1017 10.4493 26.6949 10.8636C25.9221 11.6378 25.1492 12.4121 24.3764 13.1863C23.6103 12.4528 22.6747 11.8959 21.6578 11.5835C20.4646 11.2235 19.1765 11.1692 17.9562 11.4341C16.5326 11.7397 15.2106 12.4868 14.1869 13.5327C13.3598 14.3681 12.736 15.4005 12.3564 16.5143C10.9802 15.4412 9.60396 14.3749 8.22095 13.3018C9.67853 10.3813 12.2954 8.07895 15.3665 7.02623Z" fill="#EA4335"/>
<path fill-rule="evenodd" clip-rule="evenodd" d="M7.12994 16.4666C7.35366 15.3664 7.71976 14.2932 8.22823 13.2881C9.60443 14.3612 10.9807 15.4275 12.3637 16.5006C11.8213 18.0831 11.8213 19.8421 12.3637 21.4178C10.9874 22.4909 9.61124 23.564 8.23501 24.6304C6.96046 22.1377 6.57403 19.2105 7.12994 16.4666Z" fill="#FBBC05"/>
<path fill-rule="evenodd" clip-rule="evenodd" d="M19.488 16.5955C23.4404 16.5955 27.3996 16.5955 31.3521 16.5955C31.7451 18.8164 31.6571 21.1324 31.0334 23.3057C30.4571 25.2957 29.3656 27.1431 27.8403 28.549C26.5047 27.5099 25.1691 26.4707 23.8336 25.4316C25.1556 24.5418 26.0911 23.102 26.3556 21.5263C24.0641 21.5263 21.7726 21.5263 19.4812 21.5263C19.488 19.8827 19.488 18.2391 19.488 16.5955Z" fill="#4285F4"/>
<path fill-rule="evenodd" clip-rule="evenodd" d="M8.22095 24.6368C9.59718 23.5705 10.9734 22.4974 12.3496 21.4243C12.8784 22.9797 13.8953 24.3584 15.2377 25.3024C16.0783 25.8933 17.041 26.3144 18.0444 26.5182C19.0342 26.7219 20.0579 26.6948 21.0544 26.525C22.0442 26.3484 23.0002 25.9884 23.834 25.4247C25.1696 26.4638 26.5051 27.503 27.8407 28.5421C26.3967 29.8801 24.5865 30.7902 22.6747 31.2316C20.5595 31.7138 18.3223 31.7274 16.2207 31.1637C14.553 30.7223 12.9869 29.9276 11.6378 28.8477C10.2209 27.7203 9.04127 26.2669 8.22095 24.6368Z" fill="#34A853"/>
</svg>
