<svg width="16" height="16" viewBox="0 0 16 16" fill="none" xmlns="http://www.w3.org/2000/svg">
<path d="M10.8533 14.7333H8.31997C7.94664 14.7333 7.1333 14.62 6.69997 14.1867L4.67997 12.6267L5.2933 11.8333L7.35997 13.4333C7.52664 13.5933 7.94664 13.7267 8.31997 13.7267H10.8533C11.4533 13.7267 12.1 13.2467 12.2333 12.7067L13.8466 7.80668C13.9533 7.51335 13.9333 7.24668 13.7933 7.05335C13.6466 6.84668 13.38 6.72668 13.0533 6.72668H10.3866C10.04 6.72668 9.71997 6.58001 9.49997 6.32668C9.2733 6.06668 9.1733 5.72001 9.22664 5.36001L9.55997 3.22001C9.63997 2.84668 9.38664 2.42668 9.02664 2.30668C8.69997 2.18668 8.27997 2.36001 8.1333 2.57335L5.39997 6.64001L4.5733 6.08668L7.30664 2.02001C7.72664 1.39335 8.64664 1.09335 9.36664 1.36668C10.2 1.64001 10.7333 2.56001 10.5466 3.41335L10.22 5.51335C10.2133 5.56001 10.2133 5.62668 10.26 5.68001C10.2933 5.71335 10.34 5.73335 10.3933 5.73335H13.06C13.7133 5.73335 14.28 6.00668 14.6133 6.48001C14.94 6.94001 15.0066 7.54668 14.7933 8.13335L13.2 12.9867C12.9533 13.9533 11.9266 14.7333 10.8533 14.7333Z" fill="#2F80ED"/>
<path d="M3.58667 14H2.92C1.68667 14 1.08667 13.42 1.08667 12.2333V5.70002C1.08667 4.51335 1.68667 3.93335 2.92 3.93335H3.58667C4.82 3.93335 5.42 4.51335 5.42 5.70002V12.2333C5.42 13.42 4.82 14 3.58667 14ZM2.92 4.93335C2.19334 4.93335 2.08667 5.10668 2.08667 5.70002V12.2333C2.08667 12.8267 2.19334 13 2.92 13H3.58667C4.31334 13 4.42 12.8267 4.42 12.2333V5.70002C4.42 5.10668 4.31334 4.93335 3.58667 4.93335H2.92Z" fill="#2F80ED"/>
</svg>
