<svg width="16" height="16" viewBox="0 0 16 16" fill="none" xmlns="http://www.w3.org/2000/svg">
<path d="M7.27999 13.1666C7.08666 13.1666 6.89998 13.14 6.74664 13.08C4.46664 12.3 0.833313 9.51331 0.833313 5.39331C0.833313 3.27998 2.53997 1.56665 4.63997 1.56665C5.64664 1.56665 6.58664 1.95331 7.28664 2.63997C7.99331 1.95331 8.92664 1.56665 9.93331 1.56665C12.0333 1.56665 13.74 3.27998 13.74 5.39331C13.74 5.67998 13.72 5.97332 13.68 6.27332C13.66 6.42665 13.5666 6.56665 13.4333 6.64665C13.3 6.72665 13.1333 6.73332 12.9867 6.67332C12.1667 6.31999 11.1467 6.58665 10.6133 7.29999C10.52 7.42665 10.34 7.49331 10.2133 7.49998C10.0533 7.49998 9.90665 7.42665 9.81331 7.29999C9.43331 6.79332 8.85331 6.50665 8.22664 6.50665C7.13998 6.50665 6.25332 7.39998 6.25332 8.49998C6.25332 10.2333 7.24665 11.4666 8.08665 12.2066C8.20665 12.3133 8.26665 12.4666 8.25332 12.6266C8.23998 12.7866 8.15331 12.9266 8.01331 13.0133C7.93997 13.0533 7.87997 13.08 7.84664 13.0866C7.67331 13.14 7.47999 13.1666 7.27999 13.1666ZM4.63997 2.56665C3.09331 2.56665 1.83331 3.83331 1.83331 5.39331C1.83331 8.87998 4.73332 11.0266 6.39998 11.8533C5.76665 11.0066 5.24664 9.88664 5.24664 8.49331C5.24664 6.83997 6.57997 5.49998 8.21997 5.49998C8.96664 5.49998 9.66664 5.77332 10.2066 6.25999C10.88 5.65999 11.84 5.38664 12.7333 5.5533C12.7333 5.49997 12.7333 5.44665 12.7333 5.39998C12.7333 3.83998 11.4733 2.5733 9.92666 2.5733C9.03999 2.5733 8.21997 2.98664 7.67997 3.69997C7.58664 3.82664 7.43999 3.89998 7.27999 3.89998C7.11999 3.89998 6.97332 3.82664 6.87998 3.69997C6.35332 2.97997 5.53331 2.56665 4.63997 2.56665Z" fill="#E80C0C"/>
<path d="M10.2134 14.4333C10.0601 14.4333 9.90006 14.4133 9.7734 14.3667C9.20006 14.1733 8.2734 13.7 7.42674 12.9467C6.44007 12.0733 5.26007 10.5933 5.26007 8.49333C5.26007 6.83999 6.5934 5.5 8.2334 5.5C8.98007 5.5 9.68005 5.77334 10.2201 6.26001C11.0601 5.50668 12.3401 5.29334 13.3934 5.75334C14.4734 6.23334 15.1734 7.31333 15.1734 8.5C15.1734 11.66 12.4001 13.78 10.6534 14.3733C10.5201 14.4133 10.3667 14.4333 10.2134 14.4333ZM8.22673 6.5C7.14006 6.5 6.2534 7.39333 6.2534 8.49333C6.2534 10.2267 7.24673 11.46 8.08673 12.2C8.82673 12.8533 9.60674 13.26 10.0934 13.42C10.1467 13.44 10.2734 13.44 10.3201 13.42C11.3201 13.08 14.1667 11.4467 14.1667 8.49333C14.1667 7.69999 13.7001 6.98 12.9867 6.66667C12.1801 6.31333 11.1467 6.58 10.6134 7.29334C10.5201 7.42 10.3401 7.48666 10.2134 7.49333C10.0534 7.49333 9.90673 7.42 9.8134 7.29334C9.4334 6.78667 8.85339 6.5 8.22673 6.5Z" fill="#E80C0C"/>
</svg>
