<svg width="25" height="24" viewBox="0 0 25 24" fill="none" xmlns="http://www.w3.org/2000/svg">
<path d="M13.69 6H7.29C7.03 6 6.78 6.01 6.54 6.04C3.85 6.27 2.5 7.86 2.5 10.79V14.79C2.5 18.79 4.1 19.58 7.29 19.58H7.69C7.91 19.58 8.2 19.73 8.33 19.9L9.53 21.5C10.06 22.21 10.92 22.21 11.45 21.5L12.65 19.9C12.8 19.7 13.04 19.58 13.29 19.58H13.69C16.62 19.58 18.21 18.24 18.44 15.54C18.47 15.3 18.48 15.05 18.48 14.79V10.79C18.48 7.6 16.88 6 13.69 6ZM7 14C6.44 14 6 13.55 6 13C6 12.45 6.45 12 7 12C7.55 12 8 12.45 8 13C8 13.55 7.55 14 7 14ZM10.49 14C9.93 14 9.49 13.55 9.49 13C9.49 12.45 9.94 12 10.49 12C11.04 12 11.49 12.45 11.49 13C11.49 13.55 11.05 14 10.49 14ZM13.99 14C13.43 14 12.99 13.55 12.99 13C12.99 12.45 13.44 12 13.99 12C14.54 12 14.99 12.45 14.99 13C14.99 13.55 14.54 14 13.99 14Z" fill="#FC766A"/>
<path d="M22.48 6.79V10.79C22.48 12.79 21.86 14.15 20.62 14.9C20.32 15.08 19.97 14.84 19.97 14.49L19.98 10.79C19.98 6.79 17.69 4.5 13.69 4.5L7.6 4.51C7.25 4.51 7.01 4.16 7.19 3.86C7.94 2.62 9.3 2 11.29 2H17.69C20.88 2 22.48 3.6 22.48 6.79Z" fill="#FC766A"/>
</svg>
