<svg width="40" height="40" viewBox="0 0 40 40" fill="none" xmlns="http://www.w3.org/2000/svg">
<rect width="40" height="40" rx="20" fill="#FC766A"/>
<path d="M20 18.52C19.59 18.52 19.25 18.18 19.25 17.77V14.44C19.25 14.03 19.59 13.69 20 13.69C20.41 13.69 20.75 14.03 20.75 14.44V17.77C20.75 18.19 20.41 18.52 20 18.52Z" fill="white"/>
<path d="M20.0199 28.35C17.4399 28.35 14.8699 27.94 12.4199 27.12C11.5099 26.82 10.8199 26.17 10.5199 25.35C10.2199 24.53 10.3199 23.59 10.8099 22.77L12.0799 20.65C12.3599 20.18 12.6099 19.3 12.6099 18.75V16.65C12.6099 12.56 15.9299 9.23999 20.0199 9.23999C24.1099 9.23999 27.4299 12.56 27.4299 16.65V18.75C27.4299 19.29 27.6799 20.18 27.9599 20.65L29.2299 22.77C29.6999 23.55 29.7799 24.48 29.4699 25.33C29.1599 26.18 28.4799 26.83 27.6199 27.12C25.1699 27.95 22.5999 28.35 20.0199 28.35ZM20.0199 10.75C16.7599 10.75 14.1099 13.4 14.1099 16.66V18.76C14.1099 19.57 13.7899 20.74 13.3699 21.43L12.0999 23.56C11.8399 23.99 11.7799 24.45 11.9299 24.85C12.0799 25.25 12.4199 25.55 12.8999 25.71C17.4999 27.24 22.5599 27.24 27.1599 25.71C27.5899 25.57 27.9199 25.25 28.0699 24.83C28.2299 24.41 28.1799 23.95 27.9499 23.56L26.6799 21.44C26.2599 20.75 25.9399 19.58 25.9399 18.77V16.67C25.9299 13.4 23.2799 10.75 20.0199 10.75Z" fill="white"/>
<path d="M19.9999 30.9C18.9299 30.9 17.8799 30.46 17.1199 29.7C16.3599 28.94 15.9199 27.89 15.9199 26.82H17.4199C17.4199 27.5 17.6999 28.16 18.1799 28.64C18.6599 29.12 19.3199 29.4 19.9999 29.4C21.4199 29.4 22.5799 28.24 22.5799 26.82H24.0799C24.0799 29.07 22.2499 30.9 19.9999 30.9Z" fill="white"/>
</svg>
