<svg width="47" height="47" viewBox="0 0 47 47" fill="none" xmlns="http://www.w3.org/2000/svg">
<rect width="47" height="47" rx="23.5" fill="#FC766A"/>
<path d="M23.6596 23.12C23.6296 23.12 23.6096 23.12 23.5796 23.12C23.5296 23.11 23.4596 23.11 23.3996 23.12C20.4996 23.03 18.3096 20.75 18.3096 17.94C18.3096 15.08 20.6396 12.75 23.4996 12.75C26.3596 12.75 28.6896 15.08 28.6896 17.94C28.6796 20.75 26.4796 23.03 23.6896 23.12C23.6796 23.12 23.6696 23.12 23.6596 23.12ZM23.4996 14.25C21.4696 14.25 19.8096 15.91 19.8096 17.94C19.8096 19.94 21.3696 21.55 23.3596 21.62C23.4096 21.61 23.5496 21.61 23.6796 21.62C25.6396 21.53 27.1796 19.92 27.1896 17.94C27.1896 15.91 25.5296 14.25 23.4996 14.25Z" fill="white"/>
<path d="M23.6696 34.05C21.7096 34.05 19.7396 33.55 18.2496 32.55C16.8596 31.63 16.0996 30.37 16.0996 29C16.0996 27.63 16.8596 26.36 18.2496 25.43C21.2496 23.44 26.1096 23.44 29.0896 25.43C30.4696 26.35 31.2396 27.61 31.2396 28.98C31.2396 30.35 30.4796 31.62 29.0896 32.55C27.5896 33.55 25.6296 34.05 23.6696 34.05ZM19.0796 26.69C18.1196 27.33 17.5996 28.15 17.5996 29.01C17.5996 29.86 18.1296 30.68 19.0796 31.31C21.5696 32.98 25.7696 32.98 28.2596 31.31C29.2196 30.67 29.7396 29.85 29.7396 28.99C29.7396 28.14 29.2096 27.32 28.2596 26.69C25.7696 25.03 21.5696 25.03 19.0796 26.69Z" fill="white"/>
</svg>
