<svg width="51" height="51" viewBox="0 0 51 51" fill="none" xmlns="http://www.w3.org/2000/svg">
<rect width="51" height="51" rx="25.5" fill="#FC766A"/>
<path d="M25.6596 25.12C25.6296 25.12 25.6096 25.12 25.5796 25.12C25.5296 25.11 25.4596 25.11 25.3996 25.12C22.4996 25.03 20.3096 22.75 20.3096 19.94C20.3096 17.08 22.6396 14.75 25.4996 14.75C28.3596 14.75 30.6896 17.08 30.6896 19.94C30.6796 22.75 28.4796 25.03 25.6896 25.12C25.6796 25.12 25.6696 25.12 25.6596 25.12ZM25.4996 16.25C23.4696 16.25 21.8096 17.91 21.8096 19.94C21.8096 21.94 23.3696 23.55 25.3596 23.62C25.4096 23.61 25.5496 23.61 25.6796 23.62C27.6396 23.53 29.1796 21.92 29.1896 19.94C29.1896 17.91 27.5296 16.25 25.4996 16.25Z" fill="white"/>
<path d="M25.6696 36.05C23.7096 36.05 21.7396 35.55 20.2496 34.55C18.8596 33.63 18.0996 32.37 18.0996 31C18.0996 29.63 18.8596 28.36 20.2496 27.43C23.2496 25.44 28.1096 25.44 31.0896 27.43C32.4696 28.35 33.2396 29.61 33.2396 30.98C33.2396 32.35 32.4796 33.62 31.0896 34.55C29.5896 35.55 27.6296 36.05 25.6696 36.05ZM21.0796 28.69C20.1196 29.33 19.5996 30.15 19.5996 31.01C19.5996 31.86 20.1296 32.68 21.0796 33.31C23.5696 34.98 27.7696 34.98 30.2596 33.31C31.2196 32.67 31.7396 31.85 31.7396 30.99C31.7396 30.14 31.2096 29.32 30.2596 28.69C27.7696 27.03 23.5696 27.03 21.0796 28.69Z" fill="white"/>
</svg>
