<svg width="16" height="16" viewBox="0 0 16 16" fill="none" xmlns="http://www.w3.org/2000/svg">
<path d="M9.48 14.42C8.69334 14.42 7.58 13.8667 6.7 11.22L6.22 9.77999L4.78 9.29999C2.14 8.41999 1.58667 7.30665 1.58667 6.51999C1.58667 5.73999 2.14 4.61999 4.78 3.73332L10.44 1.84665C11.8533 1.37332 13.0333 1.51332 13.76 2.23332C14.4867 2.95332 14.6267 4.13999 14.1533 5.55332L12.2667 11.2133C11.38 13.8667 10.2667 14.42 9.48 14.42ZM5.09334 4.68665C3.24 5.30665 2.58 6.03999 2.58 6.51999C2.58 6.99999 3.24 7.73332 5.09334 8.34665L6.77334 8.90665C6.92 8.95332 7.04 9.07332 7.08667 9.21999L7.64667 10.9C8.26 12.7533 9 13.4133 9.48 13.4133C9.96 13.4133 10.6933 12.7533 11.3133 10.9L13.2 5.23999C13.54 4.21332 13.48 3.37332 13.0467 2.93999C12.6133 2.50665 11.7733 2.45332 10.7533 2.79332L5.09334 4.68665Z" fill="#EBBC2E"/>
<path d="M6.73997 9.59998C6.6133 9.59998 6.48664 9.55331 6.38664 9.45331C6.1933 9.25998 6.1933 8.93998 6.38664 8.74665L8.7733 6.35331C8.96664 6.15998 9.28664 6.15998 9.47997 6.35331C9.67331 6.54665 9.67331 6.86665 9.47997 7.05998L7.09331 9.45331C6.99997 9.55331 6.86664 9.59998 6.73997 9.59998Z" fill="#EBBC2E"/>
</svg>
